<svg width="22" height="22" viewBox="0 0 22 22" fill="none" xmlns="http://www.w3.org/2000/svg">
<path d="M21.6591 6.34698C21.6591 9.45998 21.6591 12.562 21.6591 15.675C21.5051 16.291 21.0871 16.632 20.5371 16.907C17.5561 18.403 14.5751 19.921 11.6051 21.428C11.0441 21.714 10.5161 21.714 9.94409 21.417C7.06209 19.877 4.16909 18.337 1.27609 16.819C0.649091 16.489 0.341091 15.994 0.352091 15.279C0.363091 12.452 0.363091 9.61398 0.352091 6.78698C0.352091 6.03898 0.649091 5.53298 1.30909 5.18098C4.05909 3.72898 6.80909 2.26598 9.57009 0.813976C9.91109 0.637976 10.2741 0.505976 10.6261 0.362976C10.7361 0.362976 10.8461 0.362976 10.9561 0.362976C11.1541 0.439976 11.3631 0.483976 11.5501 0.582976C14.5421 2.08998 17.5231 3.61898 20.5261 5.11498C21.0871 5.38998 21.5161 5.73098 21.6591 6.34698ZM20.4051 7.14998C20.3721 7.14998 20.3501 7.14998 20.3281 7.16098C19.1731 7.73298 18.0071 8.31598 16.8521 8.89898C16.7861 8.93198 16.7421 9.05298 16.7421 9.12998C16.7311 9.96598 16.7421 10.813 16.7311 11.649C16.7311 12.056 16.4671 12.342 16.1041 12.342C15.7411 12.342 15.4881 12.067 15.4771 11.66C15.4771 11.044 15.4771 10.428 15.4771 9.81198C15.4771 9.74598 15.4661 9.67997 15.4661 9.60297C15.3781 9.64697 15.3121 9.66897 15.2571 9.70197C14.0251 10.307 12.8041 10.923 11.5721 11.528C11.4181 11.605 11.3741 11.693 11.3741 11.858C11.3741 14.531 11.3741 17.215 11.3741 19.888C11.3741 19.965 11.3741 20.031 11.3741 20.13C11.4621 20.097 11.5171 20.075 11.5721 20.042C14.4211 18.601 17.2811 17.149 20.1301 15.708C20.3281 15.609 20.3941 15.488 20.3941 15.268C20.3831 12.628 20.3941 9.99898 20.3941 7.35898C20.4051 7.29298 20.4051 7.21598 20.4051 7.14998ZM1.59509 7.14998C1.59509 7.24898 1.59509 7.30398 1.59509 7.36998C1.59509 10.01 1.59509 12.639 1.59509 15.279C1.59509 15.499 1.67209 15.62 1.85909 15.719C4.54309 17.138 7.22709 18.568 9.92209 19.987C9.98809 20.02 10.0541 20.053 10.1421 20.097C10.1421 20.009 10.1531 19.954 10.1531 19.888C10.1531 17.193 10.1531 14.498 10.1531 11.792C10.1531 11.649 10.1091 11.572 9.97709 11.506C7.23809 10.087 4.51009 8.65698 1.77109 7.23798C1.72709 7.21598 1.68309 7.19398 1.59509 7.14998ZM2.29909 6.07198C2.34309 6.10498 2.35409 6.11598 2.36509 6.12698C5.13709 7.57898 7.89809 9.01998 10.6701 10.461C10.7251 10.494 10.8351 10.483 10.9011 10.45C11.2421 10.296 11.5721 10.12 11.9021 9.95498C12.8811 9.47098 13.8601 8.97598 14.8611 8.48098C14.8061 8.44798 14.7731 8.41498 14.7291 8.39298C11.9681 6.92998 9.20709 5.46698 6.44609 4.01498C6.36909 3.97098 6.24809 3.98198 6.17109 4.01498C5.81909 4.20198 5.47809 4.38898 5.13709 4.56498C4.19109 5.07098 3.25609 5.56598 2.29909 6.07198ZM7.66709 3.24498C7.71109 3.26698 7.73309 3.28898 7.76609 3.29998C10.5491 4.77398 13.3431 6.24798 16.1261 7.72198C16.2361 7.78798 16.3241 7.76598 16.4341 7.71098C17.4461 7.20498 18.4691 6.69898 19.4811 6.19298C19.5361 6.15998 19.6021 6.12698 19.6791 6.08298C19.6241 6.04998 19.5911 6.02798 19.5581 6.00598C16.7091 4.56498 13.8491 3.11298 11.0001 1.66098C10.8571 1.58398 10.7361 1.58398 10.5931 1.66098C9.64709 2.17798 8.72309 2.66198 7.79909 3.15698C7.75509 3.17898 7.72209 3.20098 7.66709 3.24498Z" fill="#FFD688"/>
</svg>
