<svg width="22" height="22" viewBox="0 0 22 22" fill="none" xmlns="http://www.w3.org/2000/svg">
<path d="M21.3181 12.188C21.3181 13.288 21.3181 14.388 21.3181 15.488C21.2961 15.532 21.2741 15.598 21.2521 15.642C21.1421 16.016 20.9001 16.302 20.5481 16.478C20.4161 16.544 20.3941 16.61 20.3941 16.742C20.3941 17.622 20.3941 18.48 20.3941 19.36C20.3941 20.02 20.1521 20.548 19.6241 20.966C19.3601 21.186 19.0301 21.274 18.7001 21.34C13.2661 21.34 7.83211 21.34 2.39811 21.34C2.37611 21.34 2.35411 21.318 2.33211 21.318C1.38611 21.208 0.682115 20.394 0.704115 19.36C0.704115 15.686 0.704115 11.99 0.704115 8.31598C0.704115 8.13998 0.726115 7.94198 0.770115 7.76598C1.01211 6.88598 1.69411 6.37998 2.64011 6.35798C3.10211 6.35798 3.54211 6.35798 4.00411 6.35798C4.11411 6.35798 4.24611 6.31398 4.33411 6.26998C4.84011 5.98398 5.34611 5.67598 5.87411 5.38998C8.36011 3.91598 10.8461 2.46398 13.3321 1.03398C13.9041 0.703978 14.4761 0.615978 15.0921 0.879978C15.5101 1.05598 15.8181 1.38598 16.0381 1.78198C16.8741 3.25598 17.7321 4.72998 18.5681 6.20398C18.6341 6.33598 18.7221 6.40198 18.8541 6.40198C19.1841 6.44598 19.4481 6.57798 19.7121 6.79798C20.1961 7.19398 20.3941 7.72198 20.3941 8.33798C20.3941 9.21798 20.3941 10.076 20.3941 10.956C20.3941 11.088 20.4161 11.154 20.5481 11.198C20.9221 11.374 21.1641 11.66 21.2741 12.056C21.2741 12.1 21.2961 12.144 21.3181 12.188ZM19.4481 11.022C19.4481 10.934 19.4481 10.89 19.4481 10.846C19.4481 10.01 19.4481 9.15198 19.4481 8.31598C19.4481 7.65598 19.0741 7.28198 18.4141 7.28198C13.1781 7.28198 7.94211 7.28198 2.72811 7.28198C2.04611 7.28198 1.67211 7.65598 1.67211 8.33798C1.67211 11.99 1.67211 15.664 1.67211 19.316C1.67211 19.998 2.04611 20.394 2.75011 20.394C7.96411 20.394 13.1781 20.394 18.4141 20.394C19.1181 20.394 19.4921 20.02 19.4921 19.338C19.4921 18.524 19.4921 17.71 19.4921 16.874C19.4921 16.808 19.4921 16.742 19.4921 16.654C19.3821 16.654 19.2941 16.654 19.2061 16.654C18.2821 16.654 17.3581 16.676 16.4561 16.632C15.1361 16.566 14.1021 15.532 13.9041 14.168C13.6621 12.958 14.4321 11.638 15.6201 11.22C15.9721 11.088 16.3461 11.044 16.7201 11.022C17.6221 11 18.5241 11.022 19.4481 11.022ZM18.1721 15.686C18.1721 15.686 18.1721 15.708 18.1721 15.686C18.7221 15.686 19.2941 15.686 19.8441 15.686C20.1961 15.686 20.3721 15.51 20.3941 15.18C20.3941 14.278 20.3941 13.376 20.3941 12.474C20.3941 12.144 20.2181 11.946 19.8881 11.946C18.7441 11.946 17.5781 11.924 16.4341 11.99C15.5101 12.034 14.7401 12.958 14.7841 13.882C14.8501 14.894 15.5761 15.642 16.5881 15.686C17.0941 15.708 17.6441 15.686 18.1721 15.686ZM6.13811 6.29198C6.13811 6.31398 6.13811 6.31398 6.16011 6.33598C6.68811 6.33598 7.21611 6.33598 7.74411 6.33598C7.85411 6.33598 7.96411 6.29198 8.07411 6.24798C10.3841 4.90598 12.6941 3.56398 14.9821 2.22198C15.0481 2.17798 15.0921 2.15598 15.1581 2.11198C15.1361 2.08998 15.1361 2.06798 15.1361 2.04598C14.8501 1.60598 14.3221 1.53998 13.8161 1.82598C11.3081 3.27798 8.80011 4.75198 6.29211 6.20398C6.24811 6.22598 6.20411 6.26998 6.13811 6.29198ZM9.85611 6.29198C9.85611 6.31398 9.85611 6.31398 9.87811 6.33598C9.94411 6.33598 10.0101 6.33598 10.0761 6.33598C10.5381 6.33598 10.9781 6.33598 11.4401 6.33598C11.5721 6.33598 11.7041 6.29198 11.8141 6.22598C13.1781 5.43398 14.5641 4.64198 15.9281 3.82798C15.9941 3.80598 16.0381 3.76198 16.1041 3.71798C15.9501 3.45398 15.7961 3.18998 15.6421 2.92598C13.6841 4.06998 11.7701 5.16998 9.85611 6.29198ZM13.5521 6.29198L13.5741 6.31398C14.8941 6.31398 16.2141 6.31398 17.5561 6.31398C17.2041 5.71998 16.8741 5.12598 16.5441 4.53198C15.5541 5.14798 14.5641 5.71998 13.5521 6.29198Z" fill="#FFD688"/>
<path d="M16.632 12.892C17.138 12.892 17.578 13.31 17.578 13.816C17.578 14.322 17.16 14.762 16.654 14.762C16.148 14.762 15.73 14.344 15.708 13.838C15.708 13.332 16.126 12.892 16.632 12.892Z" fill="#FFD688"/>
</svg>
