<svg width="25" height="25" viewBox="0 0 25 25" fill="none" xmlns="http://www.w3.org/2000/svg">
<path d="M21.475 24.125C15.5 24.125 9.54999 24.125 3.57499 24.125C3.54999 24.1 3.49999 24.1 3.47499 24.075C2.04999 23.8 1.04999 22.65 1.04999 21.175C1.04999 16.925 1.04999 12.7 1.04999 8.45C1.04999 6.425 2.62499 4.875 4.64999 4.875C5.42499 4.875 6.19999 4.875 6.97499 4.875C7.04999 4.875 7.12499 4.875 7.19999 4.875C7.27499 4.475 7.52499 4.275 7.92499 4.225C7.92499 3.725 7.92499 3.25 7.92499 2.75C7.94999 1.825 8.67499 1.1 9.59999 1.075C11.55 1.075 13.5 1.075 15.45 1.075C15.8 1.075 16.125 1.175 16.4 1.375C16.9 1.725 17.125 2.225 17.15 2.825C17.15 3.3 17.15 3.75 17.15 4.225C17.55 4.275 17.775 4.475 17.875 4.875C17.975 4.875 18.05 4.875 18.125 4.875C18.9 4.875 19.7 4.875 20.475 4.875C21.075 4.875 21.65 5 22.15 5.3C23.4 6.025 24 7.1 24 8.525C24 12.7 24 16.875 24 21.075C24 21.175 24 21.275 24 21.375C23.925 22.625 23.1 23.675 21.9 24C21.75 24.05 21.625 24.1 21.475 24.125ZM7.24999 22.775C10.775 22.775 14.3 22.775 17.8 22.775C17.8 17.275 17.8 11.775 17.8 6.275C17 6.275 16.225 6.275 15.425 6.275C15.45 6.3 15.45 6.325 15.45 6.35C16.35 7.625 16.425 8.95 15.75 10.35C15.725 10.425 15.725 10.5 15.725 10.575C15.875 11.15 16 11.7 16.15 12.275C16.2 12.475 16.175 12.675 16.05 12.85C15.125 14.2 14.2 15.55 13.275 16.875C13.05 17.2 12.675 17.275 12.35 17.05C11.425 16.425 10.5 15.775 9.57499 15.15C9.24999 14.925 9.19999 14.55 9.39999 14.225C10.325 12.875 11.25 11.55 12.15 10.2C12.275 10.025 12.45 9.925 12.675 9.9C13.225 9.825 13.8 9.775 14.35 9.725C14.5 9.7 14.575 9.65 14.625 9.525C14.9 8.85 14.9 8.15 14.55 7.5C14.125 6.7 13.475 6.25 12.525 6.25C10.85 6.25 9.14999 6.25 7.47499 6.25C7.39999 6.25 7.29999 6.25 7.22499 6.25C7.24999 11.75 7.24999 17.25 7.24999 22.775ZM19.2 6.275C19.2 11.775 19.2 17.275 19.2 22.775C19.9 22.775 20.575 22.8 21.225 22.75C21.475 22.725 21.775 22.625 22 22.475C22.5 22.15 22.675 21.65 22.675 21.05C22.675 16.9 22.675 12.725 22.675 8.575C22.675 8.475 22.675 8.35 22.675 8.25C22.625 7.275 21.85 6.4 20.9 6.275C20.325 6.225 19.775 6.275 19.2 6.275ZM5.87499 6.25C5.42499 6.25 4.99999 6.25 4.57499 6.25C3.37499 6.275 2.39999 7.225 2.39999 8.425C2.39999 12.7 2.39999 16.975 2.39999 21.25C2.39999 22.1 3.07499 22.775 3.92499 22.775C4.52499 22.775 5.12499 22.775 5.72499 22.775C5.77499 22.775 5.82499 22.75 5.87499 22.75C5.87499 17.25 5.87499 11.75 5.87499 6.25ZM15.8 4.25C15.8 3.775 15.8 3.3 15.8 2.85C15.8 2.625 15.675 2.475 15.45 2.475C13.5 2.475 11.575 2.475 9.62499 2.475C9.42499 2.475 9.29999 2.575 9.27499 2.8C9.27499 3.275 9.27499 3.775 9.27499 4.275C9.67499 4.3 9.89999 4.525 9.97499 4.9C11.675 4.9 13.375 4.9 15.05 4.9C15.225 4.45 15.325 4.35 15.8 4.25ZM12.575 15.55C12.6 15.525 12.6 15.5 12.625 15.475C13.325 14.45 14.025 13.45 14.725 12.425C14.75 12.375 14.775 12.275 14.775 12.225C14.675 11.825 14.575 11.45 14.475 11.025C14.1 11.075 13.725 11.125 13.35 11.15C13.2 11.15 13.1 11.225 13.025 11.35C12.375 12.325 11.7 13.275 11.05 14.225C11.025 14.275 10.975 14.325 10.95 14.4C11.5 14.8 12.025 15.175 12.575 15.55Z" fill="#FFD688"/>
</svg>
