<svg width="25" height="25" viewBox="0 0 25 25" fill="none" xmlns="http://www.w3.org/2000/svg">
<path d="M0.525024 13.175C0.525024 12.7 0.525024 12.25 0.525024 11.775C0.550024 11.7 0.550024 11.6 0.575024 11.525C0.625024 11.1 0.675024 10.65 0.750024 10.225C1.20002 7.85 2.27502 5.8 4.00002 4.075C5.77502 2.275 7.90003 1.15 10.425 0.700002C10.875 0.625002 11.325 0.575002 11.775 0.525002C12.25 0.525002 12.7 0.525002 13.175 0.525002C13.25 0.550002 13.3 0.550002 13.375 0.575002C14.025 0.675002 14.7 0.725002 15.325 0.875002C21.475 2.35 25.425 8.5 24.225 14.7C23.725 17.275 22.525 19.475 20.575 21.25C17.8 23.775 14.55 24.775 10.825 24.3C8.47503 24 6.37502 23.025 4.60002 21.45C2.50002 19.6 1.20002 17.3 0.700024 14.525C0.625024 14.075 0.600024 13.625 0.525024 13.175ZM9.65003 13.65C6.92503 11.675 6.92503 8.2 8.67503 6.225C10.525 4.125 13.65 3.875 15.725 5.65C16.75 6.525 17.35 7.625 17.475 8.975C17.65 10.925 16.9 12.475 15.325 13.675C17.975 14.75 19.675 16.65 20.45 19.375C23.875 15.55 24.2 8.925 19.55 4.7C14.975 0.500001 7.90002 1.125 4.10002 6.1C0.500024 10.775 1.87502 16.575 4.52502 19.325C5.30002 16.6 7.00003 14.725 9.65003 13.65ZM12.675 23.025C12.925 23 13.375 22.975 13.825 22.925C15.6 22.7 17.225 22.05 18.675 21C19.3 20.55 19.275 20.55 19.1 19.8C18.25 16.3 14.875 14.075 11.325 14.675C8.42503 15.15 6.12502 17.5 5.75002 20.425C5.75002 20.5 5.80002 20.6 5.85002 20.65C7.77502 22.225 9.97503 23 12.675 23.025ZM12.475 13.1C14.45 13.125 16.075 11.5 16.1 9.5C16.125 7.525 14.5 5.875 12.5 5.85C10.5 5.825 8.87503 7.45 8.82503 9.45C8.82503 11.45 10.45 13.1 12.475 13.1Z" fill="#FFD688"/>
</svg>
