<svg width="25" height="25" viewBox="0 0 25 25" fill="none" xmlns="http://www.w3.org/2000/svg">
<path d="M5.79999 23.85C5.62499 23.8 5.44999 23.775 5.29999 23.725C3.74999 23.3 2.67499 21.925 2.67499 20.325C2.67499 15.125 2.67499 9.9 2.67499 4.7C2.67499 2.775 4.24999 1.2 6.17499 1.175C9.49999 1.175 12.85 1.175 16.175 1.175C16.8 1.175 17.275 1.625 17.275 2.225C17.275 2.85 16.825 3.3 16.175 3.3C12.9 3.3 9.62499 3.3 6.37499 3.3C5.37499 3.3 4.79999 3.875 4.79999 4.875C4.79999 9.975 4.79999 15.05 4.79999 20.15C4.79999 21.15 5.37499 21.725 6.37499 21.725C9.64999 21.725 12.925 21.725 16.175 21.725C16.75 21.725 17.175 22.1 17.275 22.6C17.375 23.15 17.075 23.625 16.5 23.8C16.475 23.8 16.45 23.825 16.425 23.85C12.875 23.85 9.32499 23.85 5.79999 23.85Z" fill="#FFD688"/>
<path d="M18.7 13.575C18.625 13.575 18.55 13.575 18.475 13.575C15.8 13.575 13.125 13.575 10.45 13.575C9.87499 13.575 9.42499 13.2 9.34999 12.675C9.24999 12.05 9.74999 11.475 10.4 11.45C11.15 11.45 11.9 11.45 12.65 11.45C14.6 11.45 16.525 11.45 18.475 11.45C18.55 11.45 18.625 11.45 18.75 11.45C18.675 11.35 18.625 11.3 18.55 11.25C17.55 10.25 16.55 9.25 15.55 8.25C15.25 7.95 15.125 7.6 15.225 7.175C15.425 6.4 16.375 6.125 16.975 6.65C17.025 6.7 17.075 6.75 17.125 6.8C18.725 8.4 20.35 10.025 21.95 11.625C22.525 12.2 22.525 12.775 21.95 13.35C20.325 14.975 18.7 16.6 17.075 18.225C16.775 18.525 16.4 18.675 15.975 18.55C15.225 18.35 14.95 17.45 15.45 16.85C15.5 16.775 15.575 16.725 15.625 16.65C16.6 15.675 17.55 14.725 18.525 13.75C18.575 13.7 18.65 13.65 18.7 13.6C18.725 13.625 18.725 13.6 18.7 13.575Z" fill="#FFD688"/>
</svg>
