<svg width="25" height="25" viewBox="0 0 25 25" fill="none" xmlns="http://www.w3.org/2000/svg">
<path d="M23.85 11.8C23.85 12.275 23.85 12.75 23.85 13.225C23.825 13.275 23.825 13.35 23.825 13.4C23.625 15.875 22.725 18.075 21.075 19.95C19.325 21.975 17.1 23.225 14.475 23.675C14.075 23.75 13.65 23.8 13.225 23.85C12.75 23.85 12.275 23.85 11.8 23.85C11.75 23.825 11.675 23.825 11.625 23.825C9.72501 23.675 7.97501 23.075 6.35001 22.05C2.37501 19.5 0.375009 14.575 1.47501 9.975C2.95001 3.675 9.25001 -0.0999998 15.5 1.575C19.7 2.7 22.975 6.3 23.675 10.575C23.75 10.975 23.8 11.4 23.85 11.8ZM12.525 2.775C7.12501 2.775 2.77501 7.175 2.77501 12.55C2.80001 17.925 7.15001 22.275 12.525 22.3C17.9 22.3 22.275 17.925 22.275 12.55C22.275 7.125 17.9 2.75 12.525 2.775Z" fill="#FFD688"/>
<path d="M12.2 6.825C13 6.825 13.575 6.925 14.15 7.2C15.5 7.85 15.95 9.225 15.25 10.525C14.95 11.1 14.5 11.55 14 11.975C13.875 12.075 13.725 12.2 13.625 12.3C13.3 12.6 13.125 13 13.1 13.45C13.1 13.6 13.1 13.75 13.1 13.9C13.1 14.175 12.975 14.35 12.7 14.45C12.65 14.475 12.6 14.475 12.55 14.5C11.725 14.65 11.425 14.4 11.4 13.575C11.375 12.6 11.725 11.775 12.525 11.175C12.775 10.975 13.025 10.775 13.25 10.575C13.525 10.325 13.7 10.025 13.725 9.625C13.725 9.225 13.575 8.95 13.225 8.75C12.45 8.35 11.525 8.575 11.025 9.275C10.7 9.725 10.425 9.825 9.975 9.625C9.575 9.45 9.4 9.025 9.525 8.55C9.725 7.85 10.25 7.45 10.875 7.15C11.325 6.9 11.85 6.825 12.2 6.825Z" fill="#FFD688"/>
<path d="M13.325 16.675C13.325 17.3 12.8 17.85 12.175 17.825C11.575 17.825 11.05 17.3 11.05 16.7C11.05 16.05 11.55 15.55 12.15 15.525C12.8 15.525 13.325 16.025 13.325 16.675Z" fill="#FFD688"/>
</svg>
