<svg width="25" height="25" viewBox="0 0 25 25" fill="none" xmlns="http://www.w3.org/2000/svg">
<path d="M17.35 23.85C16.85 23.725 16.325 23.675 15.85 23.5C13.5 22.6 12.15 20.9 11.85 18.4C11.7 17.15 11.975 15.975 12.6 14.875C12.625 14.825 12.65 14.775 12.675 14.7C12.575 14.7 12.5 14.7 12.425 14.7C12.125 14.675 11.9 14.425 11.9 14.15C11.9 13.85 12.1 13.575 12.4 13.575C12.75 13.575 13.125 13.6 13.475 13.625C13.55 13.625 13.625 13.575 13.675 13.525C14.625 12.625 15.75 12.075 17.05 11.9C20.125 11.45 23.125 13.575 23.75 16.625C23.8 16.875 23.85 17.125 23.875 17.375C23.875 17.7 23.875 18.025 23.875 18.35C23.85 18.425 23.85 18.475 23.825 18.55C23.45 21 22.1 22.675 19.75 23.525C19.3 23.7 18.8 23.75 18.325 23.85C18 23.85 17.675 23.85 17.35 23.85ZM17.85 12.975C15.175 12.975 13 15.15 12.975 17.825C12.975 20.5 15.15 22.7 17.825 22.7C20.5 22.7 22.675 20.5 22.7 17.85C22.7 15.175 20.525 12.975 17.85 12.975Z" fill="#FFD688"/>
<path d="M3.97502 2.75C3.97502 2.45 3.97502 2.175 3.97502 1.925C3.97502 1.45 4.17502 1.2 4.55002 1.175C4.92502 1.175 5.12502 1.45 5.12502 1.925C5.12502 2.2 5.12502 2.45 5.12502 2.725C6.17502 2.725 7.17503 2.725 8.22503 2.725C8.22503 2.425 8.22503 2.125 8.22503 1.825C8.22503 1.425 8.45003 1.15 8.80003 1.175C9.15003 1.175 9.37503 1.425 9.37503 1.825C9.37503 2.125 9.37503 2.425 9.37503 2.725C10.4 2.725 11.425 2.725 12.475 2.725C12.475 2.425 12.475 2.125 12.475 1.825C12.475 1.425 12.7 1.175 13.05 1.175C13.4 1.175 13.625 1.425 13.625 1.825C13.625 2.05 13.625 2.275 13.625 2.5C13.625 2.575 13.625 2.65 13.625 2.725C14.65 2.725 15.675 2.725 16.725 2.725C16.725 2.425 16.725 2.125 16.725 1.825C16.725 1.425 16.95 1.15 17.3 1.175C17.65 1.175 17.875 1.45 17.875 1.85C17.875 2.125 17.875 2.4 17.875 2.675C17.875 2.7 17.875 2.7 17.9 2.75C17.975 2.75 18.05 2.75 18.125 2.75C18.525 2.75 18.925 2.75 19.35 2.75C20.15 2.75 20.675 3.275 20.675 4.075C20.675 5.85 20.675 7.625 20.675 9.4C20.675 9.875 20.325 10.15 19.9 10.025C19.675 9.95 19.525 9.75 19.5 9.475C19.5 9.025 19.5 8.6 19.5 8.125C13.775 8.125 8.07503 8.125 2.32502 8.125C2.32502 8.2 2.32502 8.275 2.32502 8.375C2.32502 11.975 2.32502 15.6 2.32502 19.2C2.32502 19.5 2.32502 19.5 2.62502 19.5C5.00002 19.5 7.40003 19.5 9.77503 19.5C10.25 19.5 10.525 19.7 10.525 20.075C10.525 20.45 10.25 20.65 9.77503 20.65C7.35003 20.65 4.95002 20.65 2.52502 20.65C1.65002 20.65 1.15002 20.15 1.15002 19.25C1.15002 14.2 1.15002 9.15 1.15002 4.1C1.15002 3.225 1.67502 2.725 2.55002 2.725C3.02502 2.75 3.47502 2.75 3.97502 2.75ZM19.525 6.95C19.525 6.85 19.525 6.775 19.525 6.675C19.525 5.95 19.525 5.225 19.525 4.5C19.525 3.9 19.525 3.9 18.925 3.9C18.575 3.9 18.25 3.9 17.875 3.9C17.875 4.2 17.875 4.45 17.875 4.7C17.875 5.1 17.625 5.375 17.275 5.35C16.925 5.35 16.7 5.075 16.7 4.7C16.7 4.425 16.7 4.175 16.7 3.9C15.65 3.9 14.65 3.9 13.6 3.9C13.6 4.2 13.6 4.475 13.6 4.75C13.6 4.975 13.5 5.175 13.3 5.275C12.925 5.475 12.475 5.225 12.45 4.8C12.425 4.5 12.45 4.2 12.45 3.9C11.4 3.9 10.375 3.9 9.37503 3.9C9.37503 3.925 9.35003 3.95 9.35003 3.95C9.35003 4.2 9.35003 4.425 9.35003 4.675C9.35003 5.075 9.12502 5.325 8.77502 5.325C8.42502 5.325 8.20003 5.075 8.17503 4.675C8.17503 4.4 8.17503 4.15 8.17503 3.875C7.12503 3.875 6.12502 3.875 5.10002 3.875C5.10002 3.9 5.07502 3.925 5.07502 3.925C5.07502 4.175 5.07502 4.425 5.07502 4.675C5.07502 5.05 4.82502 5.325 4.50002 5.325C4.17502 5.325 3.92502 5.05 3.92502 4.675C3.92502 4.4 3.92502 4.15 3.92502 3.85C3.45002 3.85 3.02502 3.85 2.57502 3.85C2.35002 3.85 2.27502 3.9 2.27502 4.125C2.30002 4.975 2.27502 5.8 2.27502 6.65C2.27502 6.725 2.27502 6.8 2.27502 6.875C8.07503 6.95 13.775 6.95 19.525 6.95Z" fill="#FFD688"/>
<path d="M9.02502 13.1C9.55002 13.1 10 13.525 10 14.075C10 14.625 9.55002 15.05 9.00002 15.05C8.47502 15.05 8.02502 14.6 8.02502 14.075C8.02502 13.525 8.45002 13.075 9.02502 13.1Z" fill="#FFD688"/>
<path d="M8.99999 11.75C8.84999 11.75 8.72499 11.775 8.57499 11.75C8.27499 11.725 8.04999 11.45 8.04999 11.175C8.04999 10.875 8.27499 10.625 8.59999 10.6C8.87499 10.575 9.14999 10.575 9.42499 10.6C9.74999 10.625 9.94999 10.875 9.94999 11.175C9.94999 11.475 9.72499 11.725 9.42499 11.75C9.27499 11.75 9.14999 11.75 8.99999 11.75Z" fill="#FFD688"/>
<path d="M12.85 11.75C12.725 11.75 12.575 11.75 12.45 11.75C12.125 11.725 11.9 11.475 11.9 11.15C11.9 10.85 12.125 10.6 12.45 10.6C12.725 10.575 13 10.575 13.275 10.6C13.575 10.625 13.8 10.875 13.8 11.175C13.8 11.45 13.575 11.7 13.275 11.75C13.125 11.75 13 11.75 12.85 11.75Z" fill="#FFD688"/>
<path d="M16.7 11.75C16.575 11.75 16.45 11.75 16.325 11.75C15.975 11.725 15.75 11.475 15.75 11.175C15.75 10.875 15.975 10.625 16.3 10.6C16.55 10.575 16.825 10.575 17.075 10.6C17.4 10.625 17.625 10.85 17.625 11.175C17.625 11.5 17.4 11.725 17.075 11.75C16.95 11.75 16.825 11.75 16.7 11.75Z" fill="#FFD688"/>
<path d="M8.99999 17.625C8.84999 17.625 8.72499 17.625 8.57499 17.625C8.27499 17.6 8.04999 17.375 8.04999 17.075C8.04999 16.8 8.22499 16.525 8.52499 16.5C8.84999 16.475 9.17499 16.475 9.49999 16.5C9.79999 16.525 9.97499 16.8 9.94999 17.1C9.92499 17.375 9.72499 17.6 9.42499 17.625C9.29999 17.625 9.14999 17.625 8.99999 17.625Z" fill="#FFD688"/>
<path d="M5.17498 14.7C5.04998 14.7 4.92498 14.7 4.79998 14.7C4.47498 14.675 4.22498 14.45 4.22498 14.125C4.22498 13.8 4.44998 13.575 4.77498 13.55C5.04998 13.55 5.29998 13.55 5.57498 13.55C5.89998 13.575 6.12498 13.825 6.09998 14.125C6.09998 14.425 5.87498 14.675 5.54998 14.7C5.42498 14.7 5.29998 14.7 5.17498 14.7Z" fill="#FFD688"/>
<path d="M5.14998 17.625C4.99998 17.625 4.87498 17.625 4.72498 17.625C4.44998 17.6 4.22498 17.375 4.22498 17.1C4.19998 16.825 4.34998 16.55 4.64998 16.5C4.99998 16.45 5.34998 16.45 5.69998 16.5C5.97498 16.525 6.12498 16.8 6.09998 17.1C6.07498 17.375 5.87498 17.6 5.59998 17.625C5.44998 17.625 5.29998 17.625 5.14998 17.625Z" fill="#FFD688"/>
<path d="M17.85 15.65C16.95 15.7 16.325 16.125 15.95 16.875C15.8 17.2 15.725 17.55 15.675 17.925C15.625 18.325 15.425 18.575 15.075 18.55C14.725 18.55 14.5 18.275 14.5 17.875C14.55 16 16.125 14.3 18.225 14.5C18.225 14.45 18.225 14.375 18.225 14.325C18.225 14.05 18.4 13.85 18.65 13.775C18.875 13.7 19.175 13.775 19.275 14C19.5 14.425 19.7 14.875 19.9 15.325C20.025 15.6 19.85 15.9 19.575 16.05C19.3 16.175 19 16.275 18.725 16.4C18.475 16.5 18.25 16.55 18.025 16.375C17.775 16.2 17.75 15.95 17.85 15.65Z" fill="#FFD688"/>
<path d="M16.65 21.225C16.5 21.5 16.275 21.625 15.975 21.575C15.675 21.525 15.575 21.325 15.5 21.05C15.425 20.75 15.325 20.45 15.25 20.125C15.125 19.675 15.325 19.375 15.775 19.3C16.05 19.25 16.325 19.225 16.6 19.15C16.9 19.075 17.175 19.1 17.35 19.4C17.525 19.675 17.45 19.925 17.2 20.175C17.875 20.375 18.475 20.275 19.025 19.9C19.125 19.825 19.25 19.75 19.375 19.725C19.65 19.675 19.875 19.825 20 20.05C20.125 20.3 20.05 20.575 19.8 20.75C19.325 21.125 18.775 21.325 18.175 21.4C17.675 21.475 17.15 21.4 16.65 21.225Z" fill="#FFD688"/>
<path d="M21.25 18.475C21.25 18.85 20.95 19.15 20.6 19.175C20.225 19.175 19.925 18.875 19.925 18.5C19.925 18.125 20.225 17.8 20.6 17.8C20.95 17.8 21.25 18.1 21.25 18.475Z" fill="#FFD688"/>
</svg>
