<svg width="25" height="25" viewBox="0 0 25 25" fill="none" xmlns="http://www.w3.org/2000/svg">
<path d="M18.325 23.925C17.925 23.8 17.525 23.725 17.15 23.575C15.425 22.8 14.575 20.875 15.15 19.075C15.2 18.875 15.175 18.8 15 18.7C13.075 17.525 11.175 16.325 9.25001 15.15C9.10001 15.05 9.02501 15.075 8.90001 15.2C7.82501 16.2 6.55001 16.525 5.15001 16.075C3.75001 15.625 2.90001 14.625 2.62501 13.175C2.32501 11.6 3.12501 10 4.52501 9.225C5.95001 8.45 7.72501 8.7 8.90001 9.85C9.02501 9.975 9.10001 10 9.27501 9.89999C11.2 8.7 13.1 7.525 15.025 6.325C15.175 6.225 15.2 6.15 15.15 6C14.375 3.475 16.3 0.974997 18.95 1.1C20.85 1.2 22.35 2.725 22.45 4.7C22.55 6.5 21.2 8.2 19.4 8.5C18.125 8.725 17.025 8.375 16.075 7.475C16.025 7.425 16 7.4 15.925 7.35C13.875 8.625 11.825 9.875 9.77501 11.15C10.1 12.05 10.1 12.95 9.77501 13.85C11.825 15.125 13.875 16.375 15.925 17.65C16.05 17.525 16.175 17.425 16.3 17.3C17.525 16.275 19.25 16.125 20.6 16.95C21.975 17.775 22.675 19.35 22.35 20.925C22.05 22.45 20.775 23.625 19.225 23.85C19.175 23.85 19.15 23.875 19.1 23.9C18.85 23.925 18.6 23.925 18.325 23.925ZM18.725 22.575C20.05 22.575 21.1 21.5 21.1 20.175C21.1 18.875 20.025 17.825 18.725 17.825C17.425 17.825 16.35 18.9 16.35 20.225C16.35 21.525 17.425 22.575 18.725 22.575ZM16.35 4.85C16.35 6.15 17.4 7.225 18.7 7.225C20.025 7.225 21.075 6.175 21.075 4.85C21.075 3.525 20 2.475 18.7 2.475C17.4 2.475 16.35 3.525 16.35 4.85ZM3.95001 12.525C3.95001 13.825 5.00001 14.9 6.32501 14.9C7.65001 14.9 8.70001 13.85 8.70001 12.525C8.70001 11.2 7.62501 10.15 6.30001 10.15C5.00001 10.15 3.95001 11.225 3.95001 12.525Z" fill="#FFD688"/>
</svg>
