
<svg width="32" height="32" viewBox="0 0 32 32" fill="none" xmlns="http://www.w3.org/2000/svg">
<g clip-path="url(#clip0_35_682)">
<path d="M23.0113 0.403224C23.5617 0.544024 24.0513 0.774424 24.4193 1.23522C25.0369 2.01282 25.0497 3.13922 24.4321 3.91362C24.3137 4.06402 24.1793 4.20482 24.0449 4.34242C20.2529 8.13442 16.4609 11.9264 12.6689 15.7184C12.5825 15.8048 12.4801 15.872 12.3233 16.0832C12.4289 16.144 12.5569 16.1824 12.6401 16.2656C16.4737 20.0896 20.2977 23.92 24.1281 27.744C24.8033 28.4192 25.0657 29.2 24.7681 30.1312C24.3329 31.4912 22.5889 32.0448 21.4465 31.1904C21.3153 31.0944 21.1937 30.9856 21.0785 30.8736C16.6689 26.464 12.2561 22.0544 7.84971 17.6448C7.04651 16.8384 6.88651 15.8176 7.42731 14.896C7.55851 14.672 7.74411 14.4736 7.92971 14.288C12.2049 10.0032 16.4897 5.72802 20.7617 1.44002C21.2353 0.966424 21.7249 0.540824 22.4033 0.400024C22.6049 0.403224 22.8097 0.403224 23.0113 0.403224Z" fill="#E4A2E7"/>
</g>
<defs>
<clipPath id="clip0_35_682">
<rect width="32" height="32" fill="white" transform="translate(32) rotate(90)"/>
</clipPath>
</defs>
</svg>
