<svg width="8" height="8" viewBox="0 0 8 8" fill="none" xmlns="http://www.w3.org/2000/svg">
<path d="M7.20802 5.19203C6.74402 5.19203 6.28003 5.12003 5.84802 4.97603C5.63202 4.90403 5.37602 4.96803 5.24002 5.10403L4.38402 5.75203C3.38402 5.22403 2.77603 4.60803 2.24803 3.61603L2.88002 2.77603C3.04002 2.61603 3.10403 2.37603 3.03203 2.15203C2.88803 1.71203 2.81603 1.25603 2.81603 0.78403C2.81603 0.44803 2.54403 0.16803 2.20003 0.16803H0.792025C0.456025 0.16803 0.176025 0.44003 0.176025 0.78403C0.176025 4.65603 3.32803 7.80803 7.20002 7.80803C7.53602 7.80803 7.81602 7.53603 7.81602 7.19203V5.80803C7.81602 5.47203 7.54402 5.19203 7.20802 5.19203Z" fill="#231F20"/>
</svg>
