<svg width="11" height="11" viewBox="0 0 11 11" fill="none" xmlns="http://www.w3.org/2000/svg">
<path d="M1.1682 10.8338C1.0626 10.8019 0.952599 10.781 0.853599 10.7348C0.417999 10.5302 0.184799 10.1826 0.170499 9.70195C0.159499 9.32024 0.168299 8.93855 0.168299 8.55575C0.168299 6.40635 0.168299 4.25695 0.168299 2.10645C0.168299 1.51575 0.540099 1.05595 1.1044 0.947046C1.1891 0.930546 1.2771 0.927246 1.3629 0.927246C2.849 0.927246 4.3351 0.927246 5.8212 0.927246C6.0797 0.927246 6.2392 1.05485 6.259 1.27485C6.2788 1.48715 6.1215 1.67195 5.9081 1.68515C5.8663 1.68735 5.8245 1.68735 5.7827 1.68735C4.3109 1.68735 2.838 1.68735 1.3662 1.68735C1.1473 1.68735 0.995499 1.78415 0.948199 1.96015C0.930599 2.02615 0.930599 2.09765 0.930599 2.16695C0.930599 3.72675 0.930599 5.28545 0.930599 6.84525C0.930599 7.76155 0.930599 8.67895 0.930599 9.59525C0.930599 9.64695 0.930599 9.69975 0.937199 9.75145C0.958099 9.91205 1.0923 10.0451 1.254 10.0649C1.3024 10.0704 1.3508 10.0715 1.3992 10.0715C3.6245 10.0715 5.8498 10.0715 8.0762 10.0715C8.1246 10.0715 8.1741 10.0715 8.2214 10.0649C8.3908 10.0451 8.5272 9.90435 8.5426 9.73384C8.547 9.68544 8.5459 9.63704 8.5459 9.58864C8.5459 8.37975 8.5459 7.17195 8.547 5.96305C8.547 5.89155 8.5536 5.81565 8.5756 5.74855C8.6262 5.59345 8.7857 5.49335 8.9474 5.50215C9.1124 5.51095 9.2532 5.62425 9.2928 5.78595C9.306 5.84205 9.3104 5.90255 9.3104 5.96085C9.3115 7.18295 9.3115 8.40615 9.3115 9.62825C9.3115 10.2585 8.9584 10.6919 8.3402 10.8217C8.3303 10.8239 8.3226 10.8316 8.3138 10.8371C5.9323 10.8338 3.5497 10.8338 1.1682 10.8338Z" fill="#FFD688"/>
<path d="M10.835 1.78974C10.813 1.87994 10.7943 1.97124 10.7668 2.06034C10.6898 2.30784 10.549 2.51464 10.3664 2.69614C8.7241 4.33734 7.0829 5.98074 5.4384 7.62084C5.368 7.69124 5.2734 7.75174 5.1788 7.78474C4.4572 8.03114 3.7334 8.26874 3.0107 8.51074C2.8677 8.55804 2.7313 8.56464 2.6048 8.46894C2.4629 8.36114 2.4222 8.19834 2.4882 8.00034C2.6829 7.41514 2.8963 6.83544 3.0679 6.24364C3.1845 5.84324 3.3957 5.53084 3.6905 5.23934C5.2349 3.71364 6.765 2.17474 8.2973 0.639139C8.6163 0.320139 8.9914 0.150739 9.4435 0.167239C10.1277 0.191439 10.714 0.720539 10.8163 1.39924C10.8196 1.41904 10.8284 1.43774 10.835 1.45644C10.835 1.56754 10.835 1.67864 10.835 1.78974ZM3.4386 7.55924C3.4727 7.55044 3.4892 7.54714 3.5046 7.54164C3.9578 7.38984 4.4121 7.23914 4.8642 7.08514C4.9104 7.06974 4.9533 7.03234 4.9885 6.99714C6.5945 5.39224 8.2005 3.78514 9.8054 2.17914C9.8472 2.13734 9.8879 2.09444 9.9231 2.04714C10.0925 1.82054 10.12 1.57414 9.9968 1.32224C9.7768 0.871239 9.218 0.797539 8.8451 1.16934C7.2237 2.78854 5.6034 4.40994 3.9831 6.03134C3.9567 6.05774 3.9292 6.08854 3.9171 6.12264C3.7598 6.59454 3.6025 7.06864 3.4386 7.55924Z" fill="#FFD688"/>
</svg>
