<svg width="15" height="15" viewBox="0 0 15 15" fill="none" xmlns="http://www.w3.org/2000/svg">
<path d="M14.31 7.11C14.31 7.38 14.31 7.635 14.31 7.905C14.295 7.995 14.28 8.1 14.28 8.19C14.115 9.63 13.575 10.905 12.615 11.985C11.565 13.17 10.245 13.92 8.68496 14.19C8.42996 14.235 8.17496 14.265 7.90496 14.295C7.63496 14.295 7.37996 14.295 7.10996 14.295C7.06496 14.28 7.01996 14.28 6.97496 14.265C6.67496 14.22 6.37496 14.205 6.08996 14.13C4.45496 13.77 3.11996 12.93 2.11496 11.61C0.854955 9.96 0.449955 8.085 0.869955 6.06C1.21496 4.44 2.06996 3.105 3.37496 2.1C4.79996 1.02 6.41996 0.569997 8.18996 0.749997C9.62996 0.884997 10.905 1.44 11.985 2.4C13.185 3.45 13.935 4.77 14.205 6.345C14.25 6.6 14.28 6.855 14.31 7.11ZM7.51496 13.38C10.755 13.38 13.395 10.74 13.38 7.5C13.38 4.26 10.74 1.635 7.51496 1.635C4.27496 1.635 1.63496 4.275 1.63496 7.515C1.63496 10.74 4.27496 13.395 7.51496 13.38Z" fill="black"/>
<path d="M7.78497 7.425C7.85997 7.425 7.90497 7.425 7.96497 7.425C8.96997 7.425 9.95997 7.425 10.965 7.425C11.265 7.425 11.445 7.575 11.475 7.83C11.505 8.055 11.355 8.28 11.115 8.34C11.04 8.355 10.98 8.355 10.905 8.355C9.74997 8.355 8.57997 8.355 7.42497 8.355C7.01997 8.355 6.85497 8.19 6.83997 7.785C6.83997 6.51 6.83997 5.25 6.83997 3.975C6.83997 3.675 6.97497 3.495 7.21497 3.435C7.46997 3.375 7.72497 3.555 7.75497 3.825C7.76997 3.885 7.76997 3.96 7.76997 4.02C7.76997 5.085 7.76997 6.165 7.76997 7.23C7.78497 7.29 7.78497 7.35 7.78497 7.425Z" fill="black"/>
</svg>
