<svg width="18" height="18" viewBox="0 0 18 18" fill="none" xmlns="http://www.w3.org/2000/svg">
<path d="M16.2756 17.6634C15.9786 17.5734 15.7716 17.3628 15.5646 17.145C14.3046 15.831 13.041 14.5188 11.7792 13.2066C11.736 13.1616 11.6946 13.1166 11.6496 13.0662C9.77223 14.3082 7.75263 14.6574 5.59803 14.0166C4.00143 13.5414 2.73423 12.582 1.81443 11.196C-0.174566 8.2008 0.405034 4.266 3.17703 1.9602C5.81403 -0.233999 9.53283 -0.18 12.1194 1.98C13.0788 2.781 13.7736 3.7746 14.2056 4.9464C14.6358 6.1128 14.7348 7.3152 14.5206 8.5392C14.3064 9.7686 13.7898 10.863 12.987 11.8296C13.0716 11.9178 13.1472 12.0006 13.2264 12.0798C14.5008 13.4046 15.7752 14.7276 17.0478 16.0524C17.4456 16.4646 17.478 17.0118 17.1018 17.3772C16.9704 17.505 16.7796 17.5698 16.6158 17.6634C16.5006 17.6634 16.389 17.6634 16.2756 17.6634ZM7.63563 2.169C4.79343 2.1672 2.47503 4.482 2.46963 7.3296C2.46243 10.1754 4.80603 12.519 7.64103 12.501C10.5012 12.483 12.8016 10.1772 12.798 7.3332C12.7944 4.4856 10.4814 2.1708 7.63563 2.169Z" fill="#C4C4C4"/>
</svg>
