<svg width="14" height="14" viewBox="0 0 14 14" fill="none" xmlns="http://www.w3.org/2000/svg">
<g clip-path="url(#clip0_4_322)">
<path d="M10.0674 0.176403C10.3082 0.238003 10.5224 0.338803 10.6834 0.540403C10.9536 0.880603 10.9592 1.3734 10.689 1.7122C10.6372 1.778 10.5784 1.8396 10.5196 1.8998C8.86059 3.5588 7.20159 5.2178 5.54259 6.8768C5.50479 6.9146 5.45999 6.944 5.39139 7.0364C5.43759 7.063 5.49359 7.0798 5.52999 7.1162C7.20719 8.7892 8.88019 10.465 10.556 12.138C10.8514 12.4334 10.9662 12.775 10.836 13.1824C10.6456 13.7774 9.88259 14.0196 9.38279 13.6458C9.32539 13.6038 9.27219 13.5562 9.22179 13.5072C7.29259 11.578 5.36199 9.6488 3.43419 7.7196C3.08279 7.3668 3.01279 6.9202 3.24939 6.517C3.30679 6.419 3.38799 6.3322 3.46919 6.251C5.33959 4.3764 7.21419 2.506 9.08319 0.630003C9.29039 0.422803 9.50459 0.236603 9.80139 0.175003C9.88959 0.176403 9.97919 0.176403 10.0674 0.176403Z" fill="white"/>
</g>
<defs>
<clipPath id="clip0_4_322">
<rect width="14" height="14" fill="white" transform="translate(14) rotate(90)"/>
</clipPath>
</defs>
</svg>
