<svg width="8" height="8" viewBox="0 0 8 8" fill="none" xmlns="http://www.w3.org/2000/svg">
<path d="M5.23999 4.03999L7.81599 5.66399V2.34399L5.23999 4.03999Z" fill="#231F20"/>
<path d="M0.184082 2.34399V5.66399L2.76008 4.03999L0.184082 2.34399Z" fill="#231F20"/>
<path d="M7.3362 1.37598H0.664195C0.424195 1.37598 0.240195 1.55198 0.200195 1.78398L4.0002 4.28797L7.8002 1.78398C7.7602 1.55198 7.5762 1.37598 7.3362 1.37598Z" fill="#231F20"/>
<path d="M4.8082 4.32794L4.1362 4.77594C4.0962 4.79994 4.0482 4.81594 4.0082 4.81594C3.9602 4.81594 3.9202 4.79994 3.8802 4.77594L3.2082 4.32794L0.200195 6.21595C0.240195 6.43995 0.424195 6.61595 0.664195 6.61595H7.3362C7.5762 6.61595 7.7602 6.43995 7.8002 6.21595L4.8082 4.32794Z" fill="#231F20"/>
</svg>
