<svg width="134" height="134" viewBox="0 0 134 134" fill="none" xmlns="http://www.w3.org/2000/svg">
<path d="M64.3199 46.498C64.1859 47.302 64.0519 47.972 63.9179 48.776C63.9179 48.91 63.9179 48.91 63.9179 49.044H41.6739C40.6019 49.044 40.0659 48.508 40.0659 47.704C40.0659 46.9 40.6019 46.364 41.6739 46.364H64.3199V46.498Z" fill="#FFD688"/>
<path d="M85.224 88.976C84.688 88.842 84.018 88.842 83.482 88.842C66.464 88.842 49.446 88.842 32.428 88.842C32.026 88.842 31.624 88.842 31.356 88.842C29.882 88.708 28.81 87.502 28.81 86.162C28.81 84.688 29.882 83.616 31.356 83.482C31.624 83.482 32.026 83.482 32.294 83.482H78.122C80.668 83.482 82.678 82.142 83.348 79.73C83.348 79.596 83.482 79.328 83.482 79.194C82.678 78.926 81.874 78.658 81.07 78.39C81.07 78.524 81.07 78.524 80.936 78.658C80.534 80.266 79.596 80.936 77.988 80.936H37.52C35.912 80.936 34.974 80.266 34.572 78.658C32.16 69.01 29.614 59.496 27.202 49.982C27.202 49.714 27.202 49.58 27.068 49.312H34.84C35.912 49.312 36.582 48.776 36.448 47.972C36.448 47.168 35.778 46.766 34.84 46.766C33.634 46.766 32.294 46.766 31.088 46.766C30.954 46.498 30.954 46.23 30.82 45.962C30.15 43.282 29.48 40.602 28.676 37.788C28.006 35.108 25.996 33.634 23.316 33.634H19.296C18.626 33.634 18.09 33.634 17.554 33.098C17.152 32.83 16.482 32.562 15.946 32.562C12.328 32.562 8.71001 32.562 5.09201 32.562C3.35001 32.562 2.01001 33.902 2.01001 35.644C2.01001 36.582 2.01001 37.386 2.01001 38.324C2.01001 40.468 3.21601 41.808 5.49401 41.808C8.84401 41.808 12.328 41.808 15.678 41.808C16.348 41.808 17.018 41.674 17.42 41.406C18.224 40.736 19.028 40.736 19.832 40.87C20.234 40.87 20.636 40.87 21.172 40.87C21.976 40.736 22.244 41.138 22.512 41.808C24.79 50.92 27.202 60.032 29.48 69.278C30.15 71.69 30.686 73.968 31.356 76.514C28.676 76.648 26.532 77.452 24.656 79.328C22.78 81.07 21.842 83.348 21.708 85.894C21.574 88.038 22.11 90.048 23.182 91.79C25.058 94.604 27.872 96.078 31.222 96.346C29.748 99.964 30.284 102.778 32.696 104.788C34.84 106.53 38.056 106.798 40.334 105.19C43.148 103.314 43.684 100.768 42.344 96.346H69.814C68.474 100.5 69.01 103.046 71.69 104.922C73.968 106.53 77.05 106.53 79.328 104.922C81.874 103.046 82.544 100.366 81.204 96.346C82.544 96.212 83.75 96.346 85.09 96.078C86.698 95.81 87.77 94.336 87.904 92.728C87.77 90.986 86.698 89.378 85.224 88.976ZM16.616 38.19C16.616 38.86 16.348 39.128 15.678 39.128C13.936 39.128 12.328 39.128 10.586 39.128C8.97801 39.128 7.23601 39.128 5.62801 39.128C4.95801 39.128 4.55601 38.86 4.55601 38.19C4.55601 37.386 4.55601 36.716 4.55601 35.912C4.55601 35.242 4.82401 35.108 5.36001 35.108H15.544C16.214 35.108 16.348 35.376 16.348 36.046C16.616 36.716 16.482 37.386 16.616 38.19ZM25.996 44.89C25.594 43.148 25.058 41.272 24.656 39.53C24.388 38.324 23.986 38.19 22.78 38.056H19.162V36.18C20.77 36.18 22.512 36.046 24.12 36.18C25.058 36.18 25.862 36.85 26.13 37.788C26.934 40.736 27.738 43.55 28.542 46.498C26.398 46.632 26.398 46.632 25.996 44.89ZM36.85 103.314C34.706 103.314 32.964 101.572 32.964 99.562C32.964 97.418 34.706 95.676 36.85 95.676C38.994 95.676 40.736 97.418 40.736 99.562C40.736 101.572 38.86 103.314 36.85 103.314ZM75.442 103.314C73.298 103.314 71.556 101.572 71.556 99.562C71.556 97.418 73.298 95.676 75.442 95.676C77.586 95.676 79.328 97.418 79.328 99.562C79.328 101.572 77.586 103.314 75.442 103.314ZM84.152 93.398C83.348 93.398 82.41 93.398 81.606 93.398C79.864 93.264 78.122 93.13 76.38 93.13C75.71 93.13 74.906 93.13 74.236 93.13C73.164 93.264 72.092 93.398 71.02 93.398C60.702 93.398 50.518 93.398 40.2 93.398C39.396 93.398 38.592 93.13 37.788 93.13C36.85 93.13 36.046 93.264 35.108 93.264C33.232 93.264 31.356 93.532 29.48 93.13C25.996 92.46 23.718 88.976 24.12 85.492C24.522 81.874 27.336 79.06 30.954 78.926C31.624 78.926 32.026 78.926 32.16 79.73C32.16 80.132 32.428 80.4 32.562 80.802C31.758 80.936 30.954 80.936 30.15 81.07C27.604 81.606 25.862 84.018 26.13 86.698C26.398 89.244 28.542 91.388 31.088 91.388C31.49 91.388 31.892 91.388 32.294 91.388H83.08C83.348 91.388 83.616 91.388 84.018 91.388C84.554 91.522 84.956 91.79 84.956 92.326C85.09 92.996 84.688 93.398 84.152 93.398Z" fill="#FFD688"/>
<path d="M43.4159 71.422C43.4159 72.226 43.0139 72.628 42.3439 72.762C41.5399 72.896 41.0039 72.494 40.8699 71.69C40.4679 69.948 39.9319 68.072 39.5299 66.33C38.7259 63.114 37.9219 59.898 37.1179 56.682C36.8499 55.744 37.2519 55.074 37.9219 54.806C38.7259 54.672 39.2619 55.074 39.5299 56.012C40.7359 60.97 41.9419 65.928 43.1479 71.02C43.4159 71.154 43.4159 71.288 43.4159 71.422Z" fill="#FFD688"/>
<path d="M64.9899 61.372C64.8559 63.516 64.5879 65.66 64.4539 67.804C64.3199 68.876 64.1859 69.948 64.1859 71.02C64.0519 72.36 63.6499 72.896 62.8459 72.896C61.9079 72.896 61.6399 72.226 61.6399 70.886C62.0419 66.062 62.4439 61.104 62.8459 56.146C62.9799 55.476 63.2479 55.074 63.6499 54.94C63.6499 55.342 63.7839 55.744 63.7839 56.012C64.0519 57.888 64.4539 59.63 64.9899 61.372Z" fill="#FFD688"/>
<path d="M50.116 57.352C49.982 55.476 50.384 54.806 51.188 54.806C52.126 54.672 52.528 55.342 52.662 56.682C53.064 61.372 53.466 66.196 53.868 70.886C53.868 71.02 53.868 71.02 53.868 71.154C53.868 72.092 53.466 72.628 52.662 72.762C51.858 72.762 51.322 72.226 51.322 71.422C50.786 66.598 50.384 61.774 50.116 57.352Z" fill="#FFD688"/>
<path d="M127.97 93.666C126.764 93.398 125.826 92.594 124.754 91.522C122.208 88.976 119.662 86.296 116.982 83.75C115.24 82.008 113.498 80.4 111.89 78.658C111.622 78.39 111.354 78.122 111.086 77.988C109.88 76.782 109.21 76.112 108.942 74.906L108.406 72.36L106.128 73.7C105.86 73.834 105.592 73.968 105.458 74.102C102.108 76.246 98.6241 77.586 94.7381 78.122C93.5321 78.256 92.1921 78.39 90.9861 78.39C88.5741 78.39 86.2961 78.122 84.1521 77.452C83.4821 77.184 82.6781 76.916 81.8741 76.648C81.4721 76.514 81.0701 76.246 80.5341 76.112C73.7001 72.762 69.1441 67.804 66.8661 61.104V60.836C66.3301 59.228 65.9281 57.486 65.6601 55.744L65.5261 54.672C65.5261 54.404 65.5261 54.002 65.3921 53.734V51.188C65.3921 50.92 65.6601 49.178 65.6601 49.178V49.044C65.6601 49.044 65.6601 48.91 65.6601 48.776C65.7941 48.24 65.7941 47.57 66.0621 46.9C66.7321 43.684 67.9381 40.736 69.8141 38.056C72.6281 33.902 76.2461 30.82 80.8021 28.81C84.1521 27.336 87.6361 26.666 91.1201 26.666C92.8621 26.666 94.6041 26.8 96.4801 27.202C102.108 28.408 106.798 31.088 110.55 35.376C114.436 39.798 116.58 44.89 116.982 50.518C117.384 56.414 116.044 61.774 112.828 66.598C112.694 66.866 112.56 67.134 112.426 67.268L110.952 69.546L113.632 70.082C114.57 70.35 115.374 70.886 116.178 71.69C119.528 75.174 123.012 78.524 126.362 81.874L130.918 86.43C131.186 86.698 131.454 87.1 131.722 87.368C132.66 88.574 132.66 90.718 131.588 92.058C130.918 92.862 130.114 93.264 128.908 93.666H127.97ZM91.2541 30.016C81.2041 30.016 72.6281 36.448 69.6801 45.962C69.4121 46.9 69.1441 47.838 69.0101 48.776C68.8761 49.982 68.7421 51.188 68.7421 52.528C68.7421 56.816 69.9481 61.104 72.3601 64.722C73.0301 65.794 73.7001 66.732 74.5041 67.67C78.7921 72.36 84.8221 75.04 91.1201 75.04C97.2841 75.04 102.912 72.628 107.2 68.474C111.488 64.186 113.766 58.558 113.766 52.528C113.766 40.066 103.582 30.016 91.2541 30.016Z" fill="#FFD688"/>
<path d="M95.1399 66.732C95.1399 67.804 94.8719 68.742 94.2019 69.546C93.3979 70.484 92.4599 71.02 91.2539 71.02C90.1819 71.02 89.2439 70.618 88.4399 69.68C87.6359 68.876 87.2339 67.804 87.2339 66.732C87.2339 65.66 87.6359 64.722 88.3059 63.918C88.9759 63.114 89.9139 62.712 91.1199 62.712C93.9339 62.578 95.1399 63.918 95.1399 66.732ZM94.6039 38.86C94.6039 41.272 94.4699 43.416 94.3359 45.426C94.0679 47.838 93.6659 52.93 92.8619 60.702H89.7799C89.7799 60.3 89.1099 52.93 87.9039 38.726C88.0379 35.51 89.1099 33.902 91.2539 33.902C93.5319 34.036 94.6039 35.644 94.6039 38.86Z" fill="#FFD688"/>
</svg>
