<svg width="100" height="100" viewBox="0 0 100 100" fill="none" xmlns="http://www.w3.org/2000/svg">
<path d="M71.2 7.99995H65V6.99995C65 4.89995 64.0999 3.59995 62.0999 2.89995C62 2.89995 62 2.79995 61.9 2.79995H60.2999C58.7 3.39995 57.5 4.39995 57.2999 6.09995C57.2 6.69995 57.2999 7.29995 57.2999 7.89995H26V6.79995C26 4.89995 25 3.49995 23.2 2.89995C23.1 2.89995 23 2.79995 22.9 2.69995H21.2999C19.6999 3.29995 18.5 4.29995 18.3 5.99995C18.2 6.59995 18.3 7.19995 18.3 7.89995C16.2 7.89995 14.2 7.89995 12.2 7.89995C11.5 7.89995 10.7 7.99995 9.99995 8.09995C7.09995 8.99995 5.19995 11.5 5.19995 14.4V79.3C5.19995 82.9 7.39995 85.5 10.8 86C11.2 86.1 11.7 86.1 12.1 86.1H56.5999C56.2999 85.2999 56 84.4 55.7999 83.5H12C9.39995 83.5 7.79995 81.9 7.79995 79.3V77.1C7.99995 77.2 8.09995 77.2 8.19995 77.3C9.39995 78 10.6 78.3 12 78.3C26.3 78.3 40.7 78.3 55.0999 78.3C55.0999 78.2 55.0999 78.2 55.0999 78.1C55.0999 77.2999 55.1 76.5 55.2 75.7H12.2C9.29995 75.7 7.79995 74.2 7.79995 71.3V23.6H75.5V55.5999C76.2 55.5 76.8999 55.5 77.7 55.5C77.8999 55.5 78 55.5 78.2 55.5V14.9C78.1 10.7 75.2999 7.99995 71.2 7.99995ZM59.7999 6.69995C59.7999 5.89995 60.2999 5.39995 61 5.39995C61.7 5.39995 62.2999 5.89995 62.2999 6.69995C62.2999 7.59995 62.2999 8.39995 62.2999 9.29995C62.2999 10.1 62.2999 11 62.2999 11.8C62.2999 12.6 61.7 13.2 61 13.2C60.2999 13.2 59.7 12.7 59.7 11.8C59.7999 10.1 59.7999 8.39995 59.7999 6.69995ZM20.8 6.69995C20.8 5.89995 21.4 5.39995 22.1 5.39995C22.8 5.39995 23.3 5.89995 23.4 6.69995C23.4 7.59995 23.4 8.39995 23.4 9.29995C23.4 10.1 23.4 11 23.4 11.8C23.4 12.6 22.8 13.2 22.1 13.2C21.4 13.2 20.8 12.7 20.8 11.8C20.8 10.1 20.8 8.39995 20.8 6.69995ZM75.4 21H7.79995C7.79995 18.6 7.69995 16.3 7.79995 13.9C7.89995 12.1 9.49995 10.7 11.2 10.6C13.5 10.5 15.7 10.6 18.1 10.6C18.4 14.2 19.5 15.7 21.9 15.8C23.3 15.8 24.4 15.3 25.2 14.2C26 13.2 26 11.9 26 10.6H57.2C57.2 11 57.2 11.4 57.2 11.9C57.2 14.1 58.8999 15.8 61.0999 15.8C63.2999 15.8 65 14.1 65 11.9C65 11.5 65 11.1 65 10.7C67.4 10.7 69.7999 10.6 72.1 10.7C73.9 10.8 75.3 12.4 75.4 14.1C75.5 16.4 75.4 18.6 75.4 21Z" fill="#FFD688"/>
<path d="M39.0001 31.4C39.0001 29.9 37.9001 28.8 36.4001 28.8C34.7001 28.8 32.9001 28.8 31.2001 28.8C29.7001 28.8 28.6001 29.9 28.6001 31.4C28.6001 33.1 28.6001 34.9 28.6001 36.6C28.6001 38.1 29.7001 39.2001 31.2001 39.2001C32.9001 39.2001 34.6001 39.2001 36.3001 39.2001C37.9001 39.2001 38.9001 38.1 39.0001 36.5C39.0001 35.7 39.0001 34.8 39.0001 34C39.0001 33.1 39.0001 32.3 39.0001 31.4ZM36.4001 36.6H31.3001V31.5H36.4001V36.6Z" fill="#FFD688"/>
<path d="M52 28.8C50.3 28.8 48.6 28.8 47 28.8C45.4 28.8 44.3 29.9 44.3 31.5C44.3 33.2 44.3 34.9 44.3 36.6C44.3 38.1 45.4001 39.2001 46.9001 39.2001C47.8001 39.2001 48.6 39.2001 49.5 39.2001C50.3 39.2001 51.1001 39.2001 51.9001 39.2001C53.5001 39.2001 54.6 38.1 54.6 36.5C54.6 34.8 54.6 33.1 54.6 31.4C54.6 29.9 53.5 28.8 52 28.8ZM52 36.6H46.9001V31.5H52V36.6Z" fill="#FFD688"/>
<path d="M54.5999 47C54.5999 45.6 53.4999 44.5 52.0999 44.4C50.2999 44.4 48.5 44.4 46.7 44.4C45.3 44.4 44.2 45.5 44.2 46.9C44.2 48.7 44.2 50.5 44.2 52.3C44.2 53.7 45.3 54.8 46.7 54.8C48.5 54.8 50.2999 54.8 52.0999 54.8C53.4999 54.8 54.5999 53.7 54.5999 52.2C54.5999 51.3 54.5999 50.5 54.5999 49.6C54.5999 48.8 54.6999 47.9 54.5999 47ZM52 52.2H46.9V47.1H52V52.2Z" fill="#FFD688"/>
<path d="M67.5 44.4C66.7 44.4 65.8 44.4 65 44.4C64.1 44.4 63.3001 44.4 62.4001 44.4C60.9001 44.4 59.8 45.5 59.8 47C59.8 48.7 59.8 50.5 59.8 52.2C59.8 53.7 60.9001 54.8 62.4001 54.8C64.1001 54.8 65.9 54.8 67.6 54.8C69.1 54.8 70.2 53.7 70.2 52.2C70.2 50.5 70.2 48.8 70.2 47.1C70.2 45.5 69.1 44.5 67.5 44.4ZM67.6 52.2H62.5V47.1H67.6V52.2Z" fill="#FFD688"/>
<path d="M39.0001 62.6C39.0001 61.2 37.9001 60.1 36.5001 60.1C34.7001 60.1 32.9001 60.1 31.1001 60.1C29.7001 60.1 28.6001 61.2 28.6001 62.7C28.6001 63.6 28.6001 64.4 28.6001 65.3C28.6001 66.2 28.6001 67.1 28.6001 68C28.6001 69.4 29.7001 70.5 31.1001 70.5C32.9001 70.5 34.7001 70.5 36.5001 70.5C37.9001 70.5 39.0001 69.4 39.0001 68C39.0001 66.1 39.0001 64.4 39.0001 62.6ZM36.4001 67.8H31.3001V62.7H36.4001V67.8Z" fill="#FFD688"/>
<path d="M54.5999 65.3C54.5999 64.4 54.5999 63.6 54.5999 62.7C54.5999 61.2 53.5 60.1 52 60.1C50.3 60.1 48.4999 60.1 46.7999 60.1C45.2999 60.1 44.3 61.2 44.2 62.7C44.2 64.4 44.2 66.2 44.2 67.9C44.2 69.3 45.3 70.4 46.7 70.5C48.5 70.5 50.2999 70.5 52.0999 70.5C53.4999 70.5 54.5999 69.4 54.5999 67.9C54.6999 67 54.5999 66.2 54.5999 65.3ZM52 67.9H46.9V62.8H52V67.9Z" fill="#FFD688"/>
<path d="M70.2 31.3C70.2 29.9 69.1 28.8 67.6 28.8C65.8 28.8 64.1 28.8 62.3 28.8C60.9 28.8 59.8 29.9 59.8 31.4C59.8 32.3 59.8 33.1 59.8 34C59.8 34.9 59.8 35.8001 59.8 36.7001C59.8 38.1 60.9 39.2 62.3 39.3C64.1 39.3 65.9 39.3 67.7 39.3C69.1 39.3 70.2 38.2 70.2 36.8C70.3 34.9 70.3 33.1 70.2 31.3ZM67.6 36.6H62.5V31.5H67.6V36.6Z" fill="#FFD688"/>
<path d="M20.7 44.4C19 44.4 17.3 44.4 15.6 44.4C14.1 44.4 13 45.5 13 47C13 48.7 13 50.4 13 52.1C13 53.6 14.1 54.7 15.6 54.7C17.3 54.7 19 54.7 20.7 54.7C22.3 54.7 23.3 53.6 23.4 52C23.4 51.2 23.4 50.4 23.4 49.6C23.4 48.7 23.4 47.9 23.4 47C23.4 45.5 22.3 44.5 20.7 44.4ZM20.7 52.2H15.6V47.1H20.7V52.2Z" fill="#FFD688"/>
<path d="M36.3001 44.4C34.6001 44.4 32.9001 44.4 31.2001 44.4C29.7001 44.4 28.6001 45.5 28.6001 47C28.6001 48.7 28.6001 50.4 28.6001 52.1C28.6001 53.6 29.7001 54.7 31.2001 54.7C32.9001 54.7 34.6001 54.7 36.3001 54.7C37.9001 54.7 38.9001 53.6 39.0001 52C39.0001 51.2 39.0001 50.4 39.0001 49.6C39.0001 48.7 39.0001 47.9 39.0001 47C39.0001 45.5 37.9001 44.5 36.3001 44.4ZM36.4001 52.2H31.3001V47.1H36.4001V52.2Z" fill="#FFD688"/>
<path d="M23.4 31.3C23.4 29.9 22.3 28.8 20.8 28.8C19.1 28.8 17.3 28.8 15.6 28.8C14.1 28.8 13 29.9 13 31.4C13 32.2 13 33.1001 13 33.9001C13 34.8001 13 35.6 13 36.5C13 38 14.1 39.1 15.6 39.1C17.3 39.1 19.1 39.1 20.8 39.1C22.2 39.1 23.3 38 23.4 36.6C23.4 34.9 23.4 33.1 23.4 31.3ZM20.7 36.6H15.6V31.5H20.7V36.6Z" fill="#FFD688"/>
<path d="M20.8 60.1C19.9 60.1 19.1 60.1 18.2 60.1C17.4 60.1 16.5 60.1 15.7 60.1C14.1 60.1 13 61.2 13 62.8C13 64.5 13 66.2 13 67.9C13 69.4 14.1 70.5 15.6 70.5C17.3 70.5 19 70.5 20.7 70.5C22.2 70.5 23.3 69.4 23.3 67.9C23.3 66.2 23.3 64.4 23.3 62.7C23.3 61.2 22.2 60.1 20.8 60.1ZM20.7 67.8H15.6V62.7H20.7V67.8Z" fill="#FFD688"/>
<path d="M41.5999 17.1C38.7999 17.1 35.9999 17.1 33.0999 17.1C32.8999 17.1 32.6 17.1 32.4 17.1C31.6 17 31.2 16.5 31.2 15.8C31.2 15.1 31.7 14.6 32.4 14.6C33.2 14.6 33.9999 14.6 34.7999 14.6C39.9999 14.6 45.1999 14.6 50.2999 14.6C50.7999 14.6 51.3999 14.8 51.5999 15.1C51.7999 15.4 51.9 16.1 51.7 16.4C51.5 16.8 50.9 17.1 50.4 17.1C47.6 17.1 44.5999 17.1 41.5999 17.1Z" fill="#FFD688"/>
<path d="M78.0001 57.6C77.9001 57.6 77.7001 57.6 77.6001 57.6C76.9001 57.6 76.3001 57.6 75.6001 57.7C71.2001 58.1 67.2001 59.9 64.1001 62.7C63.5001 63.2 63.0001 63.7 62.4001 64.3C59.5001 67.4 57.6001 71.5 57.2001 75.9C57.1001 76.6 57.1001 77.3 57.1001 78.1C57.1001 78.2 57.1001 78.2 57.1001 78.3C57.1001 79.9 57.3001 81.5 57.7001 83C57.9001 83.8 58.1001 84.6 58.4001 85.4C61.3001 93.1 68.8001 98.6 77.5001 98.6C88.8001 98.6 98.0001 89.4 98.0001 78.1C98.1001 67 89.1001 57.9 78.0001 57.6ZM77.6001 95.9C70.4001 95.9 64.2001 91.6 61.4001 85.4C61.1001 84.6 60.8001 83.9 60.5001 83C60.1001 81.5 59.8001 79.9 59.8001 78.3C59.8001 78.2 59.8001 78.2 59.8001 78.1C59.8001 77.4 59.8001 76.6 59.9001 75.9C60.1001 74 60.6001 72.3 61.4001 70.6C62.1001 69.2 62.9001 67.9 63.9001 66.7C64.7001 65.8 65.6001 64.9 66.5001 64.2C67.7001 63.2 69.1001 62.4 70.6001 61.8C72.2001 61.1 73.8001 60.7 75.5001 60.5C76.1001 60.4 76.8001 60.4 77.5001 60.4C77.6001 60.4 77.8001 60.4 77.9001 60.4C87.5001 60.6 95.2001 68.5 95.2001 78.2C95.4001 87.9 87.4001 95.9 77.6001 95.9Z" fill="#FFD688"/>
<path d="M75.6001 88.1C75.6001 86.8 76.5001 85.9 77.7001 85.9C79.0001 85.9 79.8001 86.8 79.8001 88.1C79.8001 89.4 79.0001 90.3 77.7001 90.3C76.4001 90.4 75.6001 89.4 75.6001 88.1ZM76.5001 83L76.0001 65.7H79.5001L78.9001 83H76.5001Z" fill="#FFD688"/>
</svg>
