<svg width="120" height="120" viewBox="0 0 120 120" fill="none" xmlns="http://www.w3.org/2000/svg">
<path d="M118.92 103.2C118.44 103.2 117.84 103.32 117.36 103.32C90.9601 103.32 64.6801 103.32 38.2801 103.32C37.8001 103.32 37.4401 103.32 36.9601 103.32C41.5201 107.16 45.8401 111.12 49.5601 115.68C48.6001 116.52 47.6401 117.24 46.5601 118.2C39.9601 110.28 32.1601 104.04 22.8001 99.6C21.3601 101.88 19.8001 104.04 18.3601 106.44C17.2801 105.72 16.3201 105 15.1201 104.16C15.3601 103.8 15.4801 103.56 15.7201 103.2C26.1601 87.84 33.3601 71.16 37.2001 53.04C38.5201 47.04 39.1201 41.04 39.9601 34.92C40.0801 34.2 39.1201 33.36 38.6401 32.52C36.9601 33.84 36.1201 34.92 35.8801 36.96C33.9601 58.44 26.4001 77.76 13.3201 94.92C12.3601 96.12 11.4001 97.2 10.4401 98.52C9.36005 97.68 8.40005 96.84 7.44005 96C7.80005 95.52 8.04005 95.04 8.52005 94.44C6.12005 93.96 3.96005 93.6 1.56005 93.12C1.68005 91.92 1.80005 90.72 1.92005 89.28C3.96005 89.64 5.88005 90 7.80005 90.36C8.88005 90.6 10.2001 91.32 11.1601 90.96C12.1201 90.6 12.7201 89.28 13.3201 88.2C22.9201 74.4 28.8001 59.16 31.3201 42.6C31.4401 41.76 31.5601 41.04 31.5601 40.2C31.5601 39.96 31.5601 39.84 31.5601 39.36C31.2001 39.72 30.8401 39.96 30.6001 40.32C25.5601 45.36 20.4001 50.4 15.3601 55.56C13.5601 57.36 12.2401 57.12 11.1601 54.72C8.16005 48 9.48005 39.6 14.6401 34.2C15.2401 33.48 16.0801 33 16.6801 32.4C16.5601 32.28 16.5601 32.16 16.4401 32.04C16.0801 32.04 15.7201 31.92 15.2401 31.92C11.4001 31.92 7.68005 31.92 3.84005 31.92C1.20005 31.92 0.480053 30.84 1.44005 28.32C4.32005 21 11.4001 16.32 19.5601 16.2C20.2801 16.2 20.8801 16.2 21.8401 16.2C21.3601 15.6 21.0001 15.24 20.6401 15C17.8801 12.24 15.2401 9.60002 12.4801 6.84002C10.9201 5.16002 11.1601 3.72002 13.2001 2.88002C15.1201 2.16002 17.1601 1.68002 19.0801 1.08002C20.2801 1.08002 21.3601 1.08002 22.5601 1.08002C23.2801 1.20002 24.0001 1.32002 24.7201 1.44002C29.8801 2.28002 33.7201 5.28002 37.0801 9.12002C37.4401 9.60002 37.9201 10.08 38.4001 10.56C38.8801 9.96002 39.2401 9.48002 39.7201 9.12002C42.1201 6.48002 44.6401 3.96002 48.0001 2.76002C49.9201 2.04002 51.9601 1.68002 54.0001 1.20002C55.2001 1.20002 56.2801 1.20002 57.4801 1.20002C59.5201 1.80002 61.6801 2.28002 63.6001 3.00002C65.6401 3.72002 65.7601 5.16002 64.3201 6.72002C61.5601 9.48002 58.8001 12.24 56.0401 15C55.8001 15.24 55.4401 15.6 55.0801 16.08C56.6401 16.2 57.9601 16.2 59.2801 16.32C67.0801 17.28 72.4801 21.48 75.3601 28.8C76.0801 30.72 75.2401 31.92 73.2001 31.92C69.2401 31.92 65.4001 31.92 61.4401 31.92C61.0801 31.92 60.6001 31.92 60.2401 31.92C60.1201 32.04 60.1201 32.16 60.0001 32.28C60.4801 32.64 60.9601 33 61.3201 33.48C67.0801 39.36 68.6401 47.88 65.2801 55.08C64.3201 57.12 63.0001 57.36 61.3201 55.8C55.6801 50.28 50.1601 44.76 44.6401 39.12C44.4001 38.88 44.1601 38.4 43.8001 38.16C41.2801 58.8 35.0401 78.12 24.8401 96.12C26.8801 97.2 28.8001 98.28 30.7201 99.24C30.9601 99.36 31.4401 99.36 31.8001 99.36C60.4801 99.36 89.2801 99.36 117.96 99.36C118.32 99.36 118.68 99.36 119.04 99.24C118.92 100.56 118.92 101.88 118.92 103.2ZM62.5201 51.24C64.3201 45.12 62.2801 39.36 56.6401 34.32C52.4401 30.48 47.5201 29.28 42.1201 30.6C48.9601 37.44 55.6801 44.28 62.5201 51.24ZM34.4401 30.6C27.7201 28.92 22.3201 31.44 17.7601 36.6C14.0401 40.8 12.7201 45.6 14.1601 51.36C21.0001 44.28 27.7201 37.44 34.4401 30.6ZM38.7601 24.48C39.0001 24.24 39.1201 24.12 39.2401 24C41.4001 21.12 44.1601 18.96 47.5201 17.64C48.0001 17.4 48.3601 17.16 48.7201 16.8C52.0801 13.44 55.4401 10.08 58.8001 6.72002C59.0401 6.48002 59.2801 6.24002 59.5201 5.88002C55.0801 4.32002 49.3201 5.64002 45.3601 9.12002C40.5601 13.08 37.6801 17.88 38.7601 24.48ZM6.00005 27.96C6.72005 27.96 7.08005 27.96 7.56005 27.96C12.0001 27.96 16.5601 27.96 21.0001 27.96C21.7201 27.96 22.5601 27.72 23.2801 27.48C25.0801 27.12 26.8801 26.52 28.8001 26.28C30.6001 26.04 32.2801 26.28 34.0801 26.28C30.7201 21.48 25.4401 19.44 17.4001 20.4C12.4801 20.88 8.76005 23.4 6.00005 27.96ZM70.6801 27.96C66.9601 21.96 61.6801 19.92 55.2001 20.04C49.9201 20.16 45.6001 22.08 42.2401 26.52C46.4401 25.68 50.4001 26.16 54.1201 27.84C54.4801 27.96 55.0801 27.96 55.4401 27.96C59.8801 27.96 64.3201 27.96 68.7601 27.96C69.3601 27.96 69.9601 27.96 70.6801 27.96ZM17.0401 5.64002C17.4001 6.00002 17.6401 6.36002 17.8801 6.60002C20.2801 9.00002 22.9201 11.28 25.0801 13.92C27.7201 17.04 31.3201 18.48 34.4401 20.64C34.9201 18.6 35.5201 16.68 36.0001 14.64C36.1201 14.4 35.8801 13.92 35.7601 13.68C34.0801 12 32.5201 9.96002 30.6001 8.40002C26.7601 5.28002 22.2001 4.44002 17.0401 5.64002Z" fill="#FFD688"/>
<path d="M87.4801 95.4C76.6801 95.4 67.8 86.64 67.8 75.84C67.8 65.04 76.6801 56.16 87.4801 56.16C98.2801 56.16 107.16 64.92 107.16 75.72C107.16 86.64 98.4001 95.4 87.4801 95.4ZM87.4801 91.56C96.1201 91.56 103.32 84.48 103.2 75.84C103.2 67.2 96.1201 60.24 87.4801 60.12C78.8401 60.12 71.76 67.2 71.76 75.84C71.76 84.48 78.8401 91.44 87.4801 91.56Z" fill="#FFD688"/>
<path d="M107.04 111.12C93.96 111.12 81 111.12 67.92 111.12C67.92 109.92 67.92 108.72 67.92 107.4C80.88 107.4 93.96 107.4 107.04 107.4C107.04 108.6 107.04 109.8 107.04 111.12Z" fill="#FFD688"/>
<path d="M98.6399 115.2C98.6399 116.52 98.6399 117.72 98.6399 118.92C91.1999 118.92 83.7599 118.92 76.3199 118.92C76.3199 117.6 76.3199 116.4 76.3199 115.2C83.7599 115.2 91.0799 115.2 98.6399 115.2Z" fill="#FFD688"/>
<path d="M16.68 111.24C16.68 112.56 16.68 113.76 16.68 114.96C15.48 114.96 14.28 114.96 12.96 114.96C12.96 113.76 12.96 112.56 12.96 111.24C14.16 111.24 15.36 111.24 16.68 111.24Z" fill="#FFD688"/>
<path d="M28.44 111.12C27.12 111.12 25.92 111.12 24.6 111.12C24.6 109.8 24.6 108.6 24.6 107.4C25.8 107.4 27.12 107.4 28.44 107.4C28.44 108.6 28.44 109.8 28.44 111.12Z" fill="#FFD688"/>
</svg>
