<svg width="10" height="10" viewBox="0 0 10 10" fill="none" xmlns="http://www.w3.org/2000/svg">
<path d="M6.88008 4.11003C6.84008 4.18003 6.82008 4.26003 6.77008 4.31003C6.12008 4.97003 5.47008 5.62003 4.82008 6.27003C4.69008 6.40003 4.52008 6.40003 4.39008 6.27003C4.01008 5.90003 3.64008 5.52003 3.27008 5.15003C3.14008 5.02003 3.14008 4.85003 3.25008 4.73003C3.37008 4.61003 3.55008 4.61003 3.68008 4.74003C3.93008 4.98003 4.17008 5.23003 4.42008 5.48003C4.56008 5.62003 4.68008 5.62003 4.82008 5.48003C5.34008 4.96003 5.85008 4.45003 6.37008 3.93003C6.46008 3.84003 6.56008 3.80003 6.68008 3.84003C6.79008 3.88003 6.86008 3.96003 6.88008 4.07003C6.88008 4.08003 6.88008 4.10003 6.88008 4.11003C6.87008 4.10003 6.86008 4.10003 6.88008 4.11003Z" fill="#00A651"/>
<path d="M2.73998 4.67999C2.83998 4.38999 3.04998 4.22999 3.35998 4.18999C3.58998 4.15999 3.79998 4.22999 3.95998 4.39999C4.16998 4.59999 4.36998 4.81999 4.58998 5.02999C4.94998 4.66999 5.29998 4.31999 5.64998 3.96999C5.77998 3.83999 5.89998 3.71999 6.02998 3.58999C6.33998 3.28999 6.79998 3.27999 7.08998 3.57999C7.37998 3.86999 7.37998 4.33999 7.06998 4.63999C6.42998 5.28999 5.77998 5.92999 5.12998 6.57999C4.80998 6.89999 4.35998 6.89999 4.03998 6.58999C3.65998 6.21999 3.28998 5.83999 2.91998 5.46999C2.70998 5.23999 2.63998 4.96999 2.73998 4.67999Z" fill="#00A651"/>
<path d="M9.65008 4.45001C9.57008 4.37001 9.49008 4.30001 9.41008 4.23001C9.29008 4.12001 9.16008 4.01001 9.04008 3.90001C8.93008 3.79001 8.88008 3.66001 8.92008 3.51001C8.95008 3.36001 8.98008 3.21001 9.01008 3.06001C9.04008 2.93001 9.07008 2.79001 9.08008 2.66001C9.12008 2.22001 8.93008 1.94001 8.50008 1.86001C8.24008 1.81001 7.96008 1.79001 7.69008 1.76001C7.49008 1.74001 7.34008 1.65001 7.26008 1.46001C7.21008 1.34001 7.16008 1.21001 7.10008 1.09001C7.03008 0.950013 6.97008 0.800013 6.89008 0.660013C6.68008 0.330013 6.37008 0.240013 6.01008 0.390013C5.88008 0.440013 5.77008 0.510013 5.65008 0.580013C5.50008 0.660013 5.35008 0.750013 5.20008 0.830013C5.07008 0.900013 4.93008 0.900013 4.80008 0.830013C4.66008 0.760013 4.53008 0.670013 4.39008 0.600013C4.22008 0.500013 4.06008 0.400013 3.88008 0.340013C3.61008 0.250013 3.37008 0.320013 3.19008 0.540013C3.09008 0.660013 3.02008 0.800013 2.95008 0.940013C2.87008 1.11001 2.80008 1.29001 2.72008 1.46001C2.65008 1.63001 2.52008 1.72001 2.34008 1.74001C2.27008 1.75001 2.20008 1.75001 2.13008 1.76001C1.88008 1.80001 1.62008 1.82001 1.38008 1.88001C1.14008 1.94001 0.970079 2.11001 0.930079 2.36001C0.910079 2.49001 0.910079 2.63001 0.930079 2.76001C0.970079 3.01001 1.03008 3.26001 1.08008 3.51001C1.11008 3.65001 1.07008 3.77001 0.970079 3.87001C0.880079 3.96001 0.780079 4.04001 0.690079 4.13001C0.540079 4.27001 0.380079 4.40001 0.260079 4.56001C0.0300794 4.84001 0.0400794 5.15001 0.260079 5.43001C0.360079 5.56001 0.480079 5.66001 0.590079 5.77001C0.710079 5.89001 0.840079 5.99001 0.960079 6.10001C1.07008 6.20001 1.11008 6.33001 1.08008 6.48001C1.05008 6.63001 1.02008 6.78001 0.990079 6.93001C0.960079 7.07001 0.930079 7.20001 0.920079 7.34001C0.880079 7.77001 1.08008 8.05001 1.50008 8.14001C1.77008 8.19001 2.04008 8.21001 2.32008 8.24001C2.51008 8.26001 2.66008 8.35001 2.73008 8.53001C2.79008 8.66002 2.84008 8.80001 2.90008 8.92001C2.98008 9.09001 3.06008 9.26001 3.17008 9.40001C3.35008 9.65001 3.61008 9.73001 3.91008 9.63001C4.04008 9.58002 4.17008 9.52001 4.29008 9.45001C4.44008 9.37001 4.58008 9.28001 4.73008 9.19001C4.92008 9.08001 5.10008 9.08001 5.29008 9.19001C5.42008 9.27001 5.55008 9.35001 5.68008 9.42001C5.83008 9.50001 5.97008 9.58002 6.13008 9.63001C6.40008 9.72001 6.64008 9.65001 6.83008 9.43001C6.90008 9.35001 6.96008 9.25001 7.01008 9.16001C7.11008 8.95001 7.20008 8.74002 7.29008 8.53001C7.37008 8.34001 7.51008 8.25001 7.72008 8.23001C7.96008 8.21001 8.19008 8.19001 8.42008 8.15001C8.92008 8.08001 9.15008 7.79001 9.10008 7.29001C9.07008 7.05001 9.02008 6.82001 8.96008 6.59001C8.90008 6.34001 8.96008 6.14001 9.16008 5.98001C9.28008 5.89001 9.39008 5.78001 9.50008 5.69001C9.69008 5.52001 9.86008 5.33001 9.93008 5.07001V4.90001C9.86008 4.73001 9.78008 4.58001 9.65008 4.45001ZM6.76008 4.31001C6.11008 4.97001 5.46008 5.62001 4.81008 6.27001C4.68008 6.40001 4.51008 6.40001 4.38008 6.27001C4.00008 5.90001 3.63008 5.52001 3.26008 5.15001C3.13008 5.02001 3.13008 4.85001 3.24008 4.73001C3.36008 4.61001 3.54008 4.61001 3.67008 4.74001C3.92008 4.98001 4.16008 5.23001 4.41008 5.48001C4.55008 5.62001 4.67008 5.62001 4.81008 5.48001C5.33008 4.96001 5.84008 4.45001 6.36008 3.93001C6.45008 3.84001 6.55008 3.80001 6.67008 3.84001C6.78008 3.88001 6.85008 3.96001 6.87008 4.07001C6.87008 4.08001 6.87008 4.10001 6.87008 4.11001C6.88008 4.11001 6.88008 4.12001 6.89008 4.12001C6.84008 4.18001 6.82008 4.26001 6.76008 4.31001Z" fill="#00A651"/>
<path d="M7.30992 3.88C7.25992 3.96 7.23992 4.06 7.16992 4.13C6.36992 4.94 5.56992 5.74 4.75992 6.54C4.59992 6.7 4.38992 6.7 4.22992 6.54C3.76992 6.08 3.30992 5.62 2.84992 5.16C2.68992 5 2.68992 4.79 2.82992 4.64C2.96992 4.49 3.19992 4.49 3.35992 4.65C3.66992 4.95 3.96992 5.26 4.26992 5.56C4.43992 5.73 4.57992 5.73 4.75992 5.56C5.39992 4.92 6.02992 4.29 6.66992 3.65C6.77992 3.54 6.89992 3.49 7.04992 3.54C7.18992 3.58 7.26992 3.69 7.29992 3.83C7.29992 3.85 7.29992 3.86 7.30992 3.88C7.29992 3.88 7.28992 3.87 7.30992 3.88Z" fill="white"/>
</svg>
