<svg width="10" height="10" viewBox="0 0 10 10" fill="none" xmlns="http://www.w3.org/2000/svg">
<path d="M8.59997 7.74002C7.92997 8.62002 7.03997 9.18002 5.94997 9.42002C5.75997 9.47002 5.55997 9.48002 5.35997 9.51002C5.32997 9.52002 5.29997 9.52002 5.26997 9.53002H4.73997C4.55997 9.51002 4.38997 9.49002 4.21997 9.46002C3.17997 9.28002 2.29997 8.78002 1.59997 7.99002C0.959971 7.27002 0.599971 6.42002 0.489971 5.46002C0.489971 5.40002 0.479971 5.33002 0.469971 5.27002V4.74002C0.489971 4.57002 0.509971 4.40002 0.539971 4.23002C0.719971 3.18002 1.21997 2.30002 2.01997 1.60002C2.73997 0.960018 3.58997 0.590018 4.54997 0.500018C5.72997 0.380019 6.80997 0.680018 7.75997 1.40002C8.62997 2.07002 9.19997 2.96002 9.42997 4.04002C9.70997 5.39002 9.43997 6.64002 8.59997 7.74002Z" fill="#FF9D00"/>
<path d="M4.82996 4.82C4.82996 4.11 4.82996 3.39 4.82996 2.68C4.82996 2.64 4.82996 2.59 4.83996 2.55C4.85996 2.37 5.02996 2.25 5.19996 2.29C5.35996 2.33 5.44996 2.45 5.44996 2.65C5.44996 3.5 5.44996 4.34 5.44996 5.19C5.43996 5.46 5.32996 5.57 5.05996 5.57C4.28996 5.57 3.50996 5.57 2.73996 5.57C2.68996 5.57 2.64996 5.57 2.59996 5.56C2.43996 5.52 2.33996 5.37 2.35996 5.22C2.37996 5.05 2.49996 4.95 2.69996 4.95C3.36996 4.95 4.02996 4.95 4.69996 4.95C4.73996 4.95 4.76996 4.95 4.81996 4.95C4.81996 4.9 4.81996 4.86 4.82996 4.82Z" fill="white"/>
</svg>
