<svg width="20" height="20" viewBox="0 0 20 20" fill="none" xmlns="http://www.w3.org/2000/svg">
<path d="M2.12411 19.698C1.93211 19.64 1.73211 19.602 1.55211 19.518C0.760108 19.146 0.336108 18.514 0.310108 17.64C0.290108 16.946 0.306108 16.252 0.306108 15.556C0.306108 11.648 0.306108 7.73997 0.306108 3.82997C0.306108 2.75597 0.982108 1.91997 2.00811 1.72197C2.16211 1.69197 2.32211 1.68597 2.47811 1.68597C5.18011 1.68597 7.88211 1.68597 10.5841 1.68597C11.0541 1.68597 11.3441 1.91797 11.3801 2.31797C11.4161 2.70397 11.1301 3.03997 10.7421 3.06397C10.6661 3.06797 10.5901 3.06797 10.5141 3.06797C7.83811 3.06797 5.16011 3.06797 2.48411 3.06797C2.08611 3.06797 1.81011 3.24397 1.72411 3.56397C1.69211 3.68397 1.69211 3.81397 1.69211 3.93997C1.69211 6.77597 1.69211 9.60997 1.69211 12.446C1.69211 14.112 1.69211 15.78 1.69211 17.446C1.69211 17.54 1.69211 17.636 1.70411 17.73C1.74211 18.022 1.98611 18.264 2.28011 18.3C2.36811 18.31 2.45611 18.312 2.54411 18.312C6.59011 18.312 10.6361 18.312 14.6841 18.312C14.7721 18.312 14.8621 18.312 14.9481 18.3C15.2561 18.264 15.5041 18.008 15.5321 17.698C15.5401 17.61 15.5381 17.522 15.5381 17.434C15.5381 15.236 15.5381 13.04 15.5401 10.842C15.5401 10.712 15.5521 10.574 15.5921 10.452C15.6841 10.17 15.9741 9.98797 16.2681 10.004C16.5681 10.02 16.8241 10.226 16.8961 10.52C16.9201 10.622 16.9281 10.732 16.9281 10.838C16.9301 13.06 16.9301 15.284 16.9301 17.506C16.9301 18.652 16.2881 19.44 15.1641 19.676C15.1461 19.68 15.1321 19.694 15.1161 19.704C10.7861 19.698 6.45411 19.698 2.12411 19.698Z" fill="#6f0b83"/>
<path d="M19.7 3.254C19.66 3.418 19.626 3.584 19.576 3.746C19.436 4.196 19.18 4.57201 18.848 4.90201C15.862 7.886 12.878 10.874 9.88799 13.856C9.75999 13.984 9.58799 14.094 9.41599 14.154C8.10399 14.602 6.78799 15.034 5.47399 15.474C5.21399 15.56 4.96599 15.572 4.73599 15.398C4.47799 15.202 4.40399 14.906 4.52399 14.546C4.87799 13.482 5.26599 12.428 5.57799 11.352C5.78999 10.624 6.17399 10.056 6.70999 9.526C9.51799 6.75201 12.3 3.954 15.086 1.162C15.666 0.582005 16.348 0.274005 17.17 0.304005C18.414 0.348005 19.48 1.31 19.666 2.544C19.672 2.58 19.688 2.614 19.7 2.648C19.7 2.85 19.7 3.052 19.7 3.254ZM6.25199 13.744C6.31399 13.728 6.34399 13.722 6.37199 13.712C7.19599 13.436 8.02199 13.162 8.84399 12.882C8.92799 12.854 9.00599 12.786 9.06999 12.722C11.99 9.804 14.91 6.88201 17.828 3.962C17.904 3.886 17.978 3.80801 18.042 3.72201C18.35 3.31001 18.4 2.862 18.176 2.404C17.776 1.584 16.76 1.45 16.082 2.126C13.134 5.07 10.188 8.018 7.24199 10.966C7.19399 11.014 7.14399 11.07 7.12199 11.132C6.83599 11.99 6.54999 12.852 6.25199 13.744Z" fill="#6f0b83"/>
</svg>
