<svg width="16" height="14" viewBox="0 0 16 14" fill="none" xmlns="http://www.w3.org/2000/svg">
<path d="M0.932595 13.8236C0.691795 13.762 0.477595 13.6612 0.316595 13.4596C0.0463948 13.1194 0.0407947 12.6266 0.310995 12.2878C0.362795 12.222 0.421595 12.1604 0.480395 12.1002C2.1394 10.4412 3.7984 8.78215 5.4574 7.12315C5.4952 7.08535 5.54 7.05595 5.6086 6.96355C5.5624 6.93695 5.5064 6.92015 5.47 6.88375C3.7928 5.21075 2.11979 3.53495 0.443994 1.86195C0.148594 1.56655 0.0337943 1.22495 0.163994 0.817551C0.354394 0.22255 1.11739 -0.0196495 1.61719 0.354151C1.67459 0.396151 1.72779 0.44375 1.77819 0.492751C3.7074 2.42195 5.638 4.35115 7.5658 6.28035C7.9172 6.63315 7.9872 7.07975 7.7506 7.48295C7.6932 7.58095 7.612 7.66775 7.5308 7.74895C5.6604 9.62355 3.7858 11.494 1.91679 13.37C1.70959 13.5772 1.4954 13.7634 1.1986 13.825C1.1104 13.8236 1.0208 13.8236 0.932595 13.8236Z" fill="white"/>
<path d="M8.9326 13.8236C8.69179 13.762 8.47759 13.6612 8.31659 13.4596C8.04639 13.1194 8.04079 12.6266 8.31099 12.2878C8.36279 12.222 8.42159 12.1604 8.48039 12.1002C10.1394 10.4412 11.7984 8.78215 13.4574 7.12315C13.4952 7.08535 13.54 7.05595 13.6086 6.96355C13.5624 6.93695 13.5064 6.92015 13.47 6.88375C11.7928 5.21075 10.1198 3.53495 8.44399 1.86195C8.14859 1.56655 8.03379 1.22495 8.16399 0.817551C8.35439 0.222551 9.11739 -0.0196491 9.61719 0.354151C9.67459 0.396151 9.72779 0.443751 9.77819 0.492751C11.7074 2.42195 13.638 4.35115 15.5658 6.28035C15.9172 6.63315 15.9872 7.07975 15.7506 7.48295C15.6932 7.58095 15.612 7.66775 15.5308 7.74895C13.6604 9.62355 11.7858 11.494 9.91679 13.37C9.70959 13.5772 9.4954 13.7634 9.1986 13.825C9.1104 13.8236 9.0208 13.8236 8.9326 13.8236Z" fill="white"/>
</svg>
