<svg width="14" height="14" viewBox="0 0 14 14" fill="none" xmlns="http://www.w3.org/2000/svg">
<g clip-path="url(#clip0_4_320)">
<path d="M3.93261 13.8236C3.69181 13.762 3.47761 13.6612 3.31661 13.4596C3.04641 13.1194 3.04081 12.6266 3.31101 12.2878C3.36281 12.222 3.42161 12.1604 3.48041 12.1002C5.13941 10.4412 6.79841 8.7822 8.45741 7.1232C8.49521 7.0854 8.54001 7.056 8.60861 6.9636C8.56241 6.937 8.50641 6.9202 8.47001 6.8838C6.79281 5.2108 5.11981 3.535 3.44401 1.862C3.14861 1.5666 3.03381 1.225 3.16401 0.817596C3.35441 0.222596 4.11741 -0.0196038 4.61721 0.354196C4.67461 0.396196 4.72781 0.443796 4.77821 0.492797C6.70741 2.422 8.63801 4.3512 10.5658 6.2804C10.9172 6.6332 10.9872 7.0798 10.7506 7.483C10.6932 7.581 10.612 7.6678 10.5308 7.749C8.66041 9.6236 6.78581 11.494 4.91681 13.37C4.70961 13.5772 4.49541 13.7634 4.19861 13.825C4.11041 13.8236 4.02081 13.8236 3.93261 13.8236Z" fill="white"/>
</g>
<defs>
<clipPath id="clip0_4_320">
<rect width="14" height="14" fill="white" transform="translate(0 14) rotate(-90)"/>
</clipPath>
</defs>
</svg>
