<svg width="12" height="12" viewBox="0 0 12 12" fill="none" xmlns="http://www.w3.org/2000/svg">
<path d="M7.36794 0.635986C7.51194 0.695986 7.67994 0.731986 7.81194 0.827986C8.07594 1.00799 8.19594 1.28399 8.20794 1.59599C8.20794 1.69199 8.20794 1.78799 8.20794 1.89599C8.24394 1.89599 8.27994 1.89599 8.32794 1.89599C8.80794 1.89599 9.27594 1.89599 9.75594 1.89599C10.2119 1.89599 10.5599 2.15999 10.6919 2.57999C10.8239 3.02399 10.5959 3.51599 10.1759 3.69599C10.1159 3.71999 10.0919 3.75599 10.0799 3.82799C10.0199 4.55999 9.95994 5.29199 9.89994 6.02399C9.82794 6.82799 9.76794 7.63198 9.69594 8.43598C9.64794 9.07198 9.58794 9.69598 9.53994 10.332C9.51594 10.68 9.41994 10.98 9.11994 11.196C8.95194 11.316 8.77194 11.364 8.56794 11.364C6.86394 11.364 5.17194 11.364 3.46794 11.364C2.96394 11.364 2.56794 11.004 2.51994 10.5C2.45994 9.85198 2.41194 9.20398 2.35194 8.54398C2.29194 7.81198 2.23194 7.09199 2.17194 6.35999C2.11194 5.65199 2.05194 4.93199 1.99194 4.22399C1.97994 4.07999 1.96794 3.93599 1.95594 3.79199C1.95594 3.75599 1.91994 3.70799 1.88394 3.69599C1.40394 3.47999 1.18794 2.96399 1.36794 2.47199C1.49994 2.11199 1.85994 1.88399 2.27994 1.88399C2.74794 1.88399 3.22794 1.88399 3.69594 1.88399C3.73194 1.88399 3.76794 1.88399 3.82794 1.88399C3.82794 1.73999 3.81594 1.59599 3.82794 1.46399C3.87594 1.03199 4.18794 0.719986 4.61994 0.647986C4.63194 0.647986 4.64394 0.635986 4.65594 0.635986C5.54394 0.635986 6.45594 0.635986 7.36794 0.635986ZM2.56794 3.77999C2.57994 3.93599 2.59194 4.06799 2.60394 4.21199C2.65194 4.83599 2.71194 5.45999 2.75994 6.09599C2.81994 6.81599 2.87994 7.53599 2.93994 8.25599C2.99994 8.96399 3.05994 9.67198 3.11994 10.38C3.14394 10.644 3.25194 10.74 3.51594 10.74C4.65594 10.74 5.80794 10.74 6.94794 10.74C7.47594 10.74 8.00394 10.74 8.54394 10.74C8.73594 10.74 8.85594 10.632 8.87994 10.44C8.90394 10.236 8.91594 10.02 8.93994 9.81598C9.01194 8.92798 9.08394 8.05198 9.15594 7.16399C9.23994 6.19199 9.32394 5.23199 9.39594 4.25999C9.40794 4.10399 9.41994 3.94799 9.43194 3.77999C7.13994 3.77999 4.85994 3.77999 2.56794 3.77999ZM5.99994 3.14399C7.22394 3.14399 8.44794 3.14399 9.68394 3.14399C9.71994 3.14399 9.76794 3.14399 9.80394 3.14399C10.0199 3.11999 10.1519 2.89199 10.0559 2.69999C9.98394 2.55599 9.86394 2.51999 9.70794 2.51999C7.23594 2.51999 4.76394 2.51999 2.29194 2.51999C2.25594 2.51999 2.23194 2.51999 2.19594 2.51999C2.03994 2.54399 1.90794 2.67599 1.90794 2.83199C1.90794 2.98799 2.02794 3.13199 2.19594 3.14399C2.23194 3.14399 2.27994 3.14399 2.31594 3.14399C3.55194 3.14399 4.77594 3.14399 5.99994 3.14399ZM4.42794 1.88399C5.48394 1.88399 6.52794 1.88399 7.57194 1.88399C7.57194 1.78799 7.57194 1.70399 7.57194 1.61999C7.57194 1.39199 7.45194 1.27199 7.21194 1.27199C6.87594 1.27199 6.52794 1.27199 6.19194 1.27199C5.71194 1.27199 5.24394 1.27199 4.76394 1.27199C4.57194 1.27199 4.43994 1.39199 4.42794 1.55999C4.42794 1.66799 4.42794 1.77599 4.42794 1.88399Z" fill="#6f0b83"/>
<path d="M4.74005 9.79198C4.74005 9.94798 4.63205 10.092 4.44005 10.104C4.26005 10.116 4.11605 9.97198 4.10405 9.76798C4.03205 8.57998 3.96005 7.39198 3.87605 6.20398C3.85205 5.73598 3.81605 5.25598 3.79205 4.78798C3.78005 4.63198 3.82805 4.51198 3.97205 4.43998C4.17605 4.34398 4.40405 4.48798 4.41605 4.71598C4.45205 5.27998 4.48805 5.85598 4.52405 6.41998C4.57205 7.27198 4.63205 8.12398 4.68005 8.96398C4.70405 9.21598 4.72805 9.47998 4.74005 9.79198Z" fill="#6f0b83"/>
<path d="M8.1719 5.13596C8.0999 6.31195 8.02789 7.49996 7.94389 8.67596C7.91989 9.03596 7.89589 9.40796 7.87189 9.76795C7.85989 9.97195 7.72789 10.104 7.54789 10.104C7.35589 10.092 7.23589 9.94795 7.24789 9.74395C7.28389 9.14395 7.31989 8.54395 7.35589 7.94395C7.39189 7.31995 7.43989 6.69596 7.47589 6.05996C7.49989 5.60396 7.53589 5.15996 7.55989 4.70396C7.57189 4.52396 7.71589 4.39196 7.88389 4.40396C8.05189 4.41596 8.1839 4.54796 8.1839 4.71596C8.1959 4.85996 8.1839 4.99196 8.1719 5.13596Z" fill="#6f0b83"/>
<path d="M6.31203 7.27205C6.31203 8.10005 6.31203 8.94006 6.31203 9.76806C6.31203 10.0081 6.10803 10.1761 5.89203 10.0921C5.76003 10.0441 5.70003 9.94806 5.67603 9.81606C5.67603 9.78006 5.67603 9.74406 5.67603 9.70806C5.67603 8.07606 5.67603 6.44405 5.67603 4.80005C5.67603 4.54805 5.79603 4.40405 5.98803 4.40405C6.19203 4.40405 6.30003 4.54805 6.30003 4.80005C6.31203 5.62805 6.31203 6.44405 6.31203 7.27205Z" fill="#6f0b83"/>
</svg>
