<svg width="12" height="12" viewBox="0 0 12 12" fill="none" xmlns="http://www.w3.org/2000/svg">
<path d="M4.06789 11.292H1.96789C1.51189 11.292 1.13989 10.92 1.13989 10.464V1.54797C1.13989 1.09197 1.51189 0.719971 1.96789 0.719971H4.06789C4.52389 0.719971 4.89589 1.09197 4.89589 1.54797V10.464C4.89589 10.92 4.52389 11.292 4.06789 11.292Z" fill="#6f0b83"/>
<path d="M10.032 11.292H7.932C7.476 11.292 7.104 10.92 7.104 10.464V1.54797C7.104 1.09197 7.476 0.719971 7.932 0.719971H10.032C10.488 0.719971 10.86 1.09197 10.86 1.54797V10.464C10.86 10.92 10.488 11.292 10.032 11.292Z" fill="#6f0b83"/>
</svg>
