<svg width="14" height="14" viewBox="0 0 14 14" fill="none" xmlns="http://www.w3.org/2000/svg">
<path d="M13.839 9.57321C13.7564 9.81681 13.636 10.0338 13.3784 10.1262C13.2608 10.1682 13.132 10.1934 13.0074 10.1934C11.5542 10.1976 10.1024 10.1976 8.64916 10.1962C8.11856 10.1962 7.81056 9.88121 7.81056 9.34921C7.81056 8.84381 7.80916 8.33981 7.81056 7.83441C7.81196 7.30521 8.12416 6.99441 8.65616 6.99301C10.0688 6.99301 11.4828 6.99301 12.8954 6.99301C13.4526 6.99301 13.6318 7.11201 13.8404 7.62301C13.839 8.27401 13.839 8.92361 13.839 9.57321ZM9.14196 8.59181C9.14196 8.88581 9.18676 9.00761 9.34496 9.07481C9.54096 9.15741 9.74956 9.16161 9.94276 9.07481C10.1556 8.97961 10.15 8.77521 10.1514 8.57781C10.1514 8.39861 10.115 8.23341 9.93996 8.16201C9.74676 8.08361 9.53536 8.08081 9.34076 8.16901C9.15036 8.25721 9.13216 8.43361 9.14196 8.59181Z" fill="#FFD688"/>
<path d="M13.048 6.46799C12.9878 6.46799 12.936 6.46799 12.8842 6.46799C11.4618 6.46799 10.0408 6.46519 8.61845 6.46939C8.06965 6.47079 7.64825 6.70739 7.41585 7.20999C7.33185 7.39059 7.29405 7.60479 7.28705 7.80639C7.27025 8.33699 7.28005 8.86899 7.28145 9.39959C7.28425 10.164 7.84565 10.7254 8.61425 10.7282C9.53545 10.731 10.458 10.7282 11.3792 10.7282C11.8846 10.7282 12.3886 10.7282 12.894 10.7282C12.9416 10.7282 12.9892 10.7282 13.0522 10.7282C13.055 10.7814 13.0592 10.8276 13.0592 10.8738C13.0592 11.501 13.0606 12.1296 13.0592 12.7568C13.0578 13.2902 12.7498 13.5982 12.2164 13.5982C8.54285 13.5982 4.86925 13.5982 1.19565 13.5982C0.665048 13.5982 0.354248 13.286 0.354248 12.754C0.354248 9.99319 0.354248 7.23239 0.354248 4.47159C0.354248 3.96619 0.669248 3.64699 1.17325 3.64699C4.86365 3.64559 8.55545 3.64559 12.2458 3.64699C12.7274 3.64699 13.0466 3.93819 13.055 4.40999C13.0662 5.07639 13.0578 5.74419 13.0578 6.41059C13.0578 6.42319 13.0536 6.43579 13.048 6.46799Z" fill="#FFD688"/>
<path d="M11.515 3.11219C9.43881 3.11219 7.38221 3.11219 5.29761 3.11219C5.34801 3.09119 5.37601 3.07579 5.40681 3.06739C7.03781 2.62079 8.66881 2.17419 10.2998 1.73039C10.7758 1.60019 11.1566 1.81859 11.2924 2.29459C11.368 2.56479 11.4394 2.83359 11.515 3.11219Z" fill="#FFD688"/>
<path d="M2.82935 3.0884C2.93855 3.0338 3.04775 2.9792 3.15695 2.9246C4.60875 2.205 6.06055 1.484 7.51375 0.764405C7.94914 0.548805 8.36494 0.663605 8.58894 1.0626C8.69114 1.246 8.77795 1.4378 8.87875 1.6422C8.81714 1.6618 8.76675 1.68 8.71355 1.694C7.01395 2.1588 5.31715 2.6292 3.61475 3.08C3.36835 3.1458 3.09675 3.1164 2.83635 3.1318C2.83355 3.1164 2.83075 3.1024 2.82935 3.0884Z" fill="#FFD688"/>
</svg>
